<?xml version="1.0" standalone="no"?>
<!DOCTYPE svg PUBLIC "-//W3C//DTD SVG 1.1//EN" "http://www.w3.org/Graphics/SVG/1.1/DTD/svg11.dtd" >
<svg xmlns="http://www.w3.org/2000/svg">
<metadata></metadata>
<defs>
<font id="urwtypewritertotthinnarRg" horiz-adv-x="1005" >
<font-face units-per-em="2048" ascent="1366" descent="-682" />
<missing-glyph horiz-adv-x="512" />
<glyph unicode="&#xfb01;" horiz-adv-x="1028" d="M25 918q0 30 34 30h115q33 0 33 35v27q0 166 49 258q34 60 104 93.5t162 33.5q157 0 236 -88q67 -79 67 -168q0 -23 -11 -36t-30 -13q-22 0 -30.5 13t-14.5 56q-10 79 -68.5 125.5t-146.5 46.5q-121 0 -179 -75.5t-58 -233.5v-39q0 -19 7 -27t25 -8h476q22 0 30.5 -8.5 t8.5 -30.5v-813q0 -35 32 -35h95q34 0 34 -30q0 -31 -34 -31h-316q-17 0 -27 8.5t-10 22.5q0 30 37 30h76q33 0 33 35v756q0 35 -33 35h-402q-32 0 -32 -35v-756q0 -35 32 -35h95q35 0 35 -30q0 -31 -35 -31h-338q-35 0 -35 31q0 30 35 30h98q33 0 33 35v756q0 35 -33 35 h-115q-34 0 -34 31z" />
<glyph unicode="&#xfb02;" horiz-adv-x="1030" d="M25 918q0 30 36 30h113q33 0 33 35v18q0 221 78 306.5t282 85.5q120 0 238 -27q18 -4 24.5 -13t6.5 -30v-1227q0 -35 32 -35h95q36 0 36 -30q0 -31 -36 -31h-330q-35 0 -35 31q0 30 35 30h90q33 0 33 35v1180q0 17 -6 23.5t-25 11.5q-74 18 -166 18q-153 0 -212.5 -67.5 t-59.5 -239.5v-39q0 -19 7 -27t25 -8h152q37 0 37 -30q0 -31 -37 -31h-152q-32 0 -32 -35v-756q0 -35 32 -35h93q34 0 34 -30q0 -31 -34 -31h-336q-17 0 -27 8.5t-10 22.5q0 30 37 30h98q33 0 33 35v756q0 35 -33 35h-113q-17 0 -26.5 8.5t-9.5 22.5z" />
<glyph horiz-adv-x="0" />
<glyph horiz-adv-x="682" />
<glyph unicode=" "  horiz-adv-x="512" />
<glyph unicode="&#x09;" horiz-adv-x="512" />
<glyph unicode="&#xa0;" horiz-adv-x="512" />
<glyph unicode="!" horiz-adv-x="428" d="M137 68q0 32 22 53.5t54 21.5q33 0 55.5 -22.5t22.5 -54.5q0 -31 -22.5 -53.5t-53.5 -22.5q-32 0 -55 23t-23 55zM156 1325q0 22 8.5 31.5t28.5 9.5h34q20 0 28.5 -9.5t8.5 -31.5l-22 -997q0 -39 -29 -39q-28 0 -31 39z" />
<glyph unicode="&#x22;" horiz-adv-x="591" d="M139 1311q-3 55 45 55h11q48 0 45 -55l-19 -297q-3 -37 -31 -37q-29 0 -32 37zM352 1311v6q-3 20 10.5 34.5t36.5 14.5h9q23 0 37.5 -15.5t9.5 -35.5l-2 -4l-17 -297q-3 -37 -33 -37q-29 0 -32 37z" />
<glyph unicode="#" d="M68 551q0 31 34 31h201l41 243h-190q-35 0 -35 31t35 31h200l76 446q3 33 31 33q25 0 28 -33v-12l-73 -434h233l74 446q7 33 31 33q13 0 21.5 -9.5t8.5 -23.5v-12l-73 -434h190q35 0 35 -31t-35 -31h-201l-41 -243h191q35 0 35 -31t-35 -31h-201l-82 -487 q-1 -15 -9.5 -24t-20.5 -9q-13 0 -23 10.5t-8 22.5q0 6 2 12l80 475h-234l-80 -487q-7 -33 -32 -33q-12 0 -19.5 8.5t-9.5 22.5v14l80 475h-191q-34 0 -34 31zM365 582h233l41 243h-233z" />
<glyph unicode="$" d="M86 45v361q0 45 37 45q18 0 29 -15q6 -10 14 -76q19 -132 105 -221t206 -98v625q-123 46 -171.5 68.5t-84.5 49.5q-131 93 -131 252q0 89 45 170.5t117 124.5q94 55 225 58v161q0 41 35 41t35 -41v-161q14 -2 35 -7q123 -18 204 -125q25 -34 48 -77q8 16 8 28v113 q0 45 37 45q36 0 36 -45v-356q0 -45 -34 -45q-19 0 -29 14q-4 10 -12 82q-25 135 -99 212.5t-194 90.5v-584l33 -12l14 -4q50 -18 119.5 -51t95.5 -52q127 -90 127 -264q0 -167 -106 -273t-273 -106h-6h-4v-149q0 -43 -35 -43t-35 43v149l-22 7q-8 0 -47 8q-73 13 -144 79 t-92 136q0 6 -6 6q-4 0 -4 -4v-160q0 -45 -37 -45q-39 0 -39 45zM180 1042q0 -101 70 -168q53 -53 207 -112l20 -8v569q-102 -3 -166 -41q-58 -34 -94.5 -101t-36.5 -139zM547 39q143 11 222 91.5t79 215.5q0 100 -56 162.5t-194 116.5q-8 3 -16 6.5t-13 5t-6 2.5l-16 8 v-608z" />
<glyph unicode="%" horiz-adv-x="1347" d="M78 1040q0 168 62 258.5t177 90.5q240 0 240 -365q0 -362 -240 -362q-239 0 -239 378zM145 1040q0 -165 42 -245t130 -80q172 0 172 311q0 157 -42 233t-130 76q-82 0 -127 -77t-45 -218zM317 27q0 8 7 22l651 1297q9 20 26 20q11 0 20 -8.5t9 -18.5t-6 -22l-651 -1297 q-9 -20 -27 -20q-11 0 -20 8.5t-9 18.5zM791 352q0 169 62 259.5t177 90.5q240 0 240 -362q0 -365 -238 -365q-241 0 -241 377zM860 354q0 -166 42 -245.5t128 -79.5q88 0 130 77t42 236q0 307 -170 307q-83 0 -127.5 -77t-44.5 -218z" />
<glyph unicode="&#x26;" horiz-adv-x="1439" d="M84 360q0 134 75.5 229.5t248.5 180.5q-108 106 -156.5 189.5t-48.5 162.5q0 117 89 196t222 79q145 0 232.5 -77t87.5 -204q0 -112 -79.5 -207.5t-219.5 -154.5l409 -447q65 106 90 205q12 45 22.5 106.5t10.5 90.5q0 26 -25 26h-94q-39 0 -39 33t39 33h340q17 0 27 -9 t10 -24t-10 -24t-27 -9h-117q-19 0 -23 -12.5t-13 -93.5q-9 -92 -48 -197t-90 -176l162 -176q12 -14 31 -14h153q39 0 39 -33t-39 -33h-204q-21 0 -33 14l-164 176q-98 -114 -205 -167.5t-237 -53.5q-183 0 -299.5 109.5t-116.5 281.5zM176 358q0 -139 93 -231t233 -92 q107 0 209 54.5t180 154.5l-434 469q-281 -127 -281 -355zM285 1128q0 -53 29.5 -108t97.5 -131q4 -5 24.5 -29t48.5 -55q138 68 202.5 141.5t64.5 165.5q0 98 -64.5 159.5t-167.5 61.5q-100 0 -167.5 -58.5t-67.5 -146.5z" />
<glyph unicode="'" horiz-adv-x="376" d="M139 1311q-3 55 45 55h11q48 0 45 -55l-19 -297q-3 -37 -31 -37q-29 0 -32 37z" />
<glyph unicode="(" horiz-adv-x="530" d="M94 516q0 196 45.5 357t159.5 364q50 88 73 120t36 32q12 0 20 -9t8 -20q0 -20 -43 -82q-48 -66 -123 -252q-94 -242 -94 -514q0 -212 66 -433t172 -368q24 -35 24 -49q0 -11 -8 -20t-20 -9t-24 14t-48 72q-244 388 -244 797z" />
<glyph unicode=")" horiz-adv-x="530" d="M92 -338q0 13 29 53q34 47 86 158.5t78 192.5q69 213 69 448q0 214 -66 434t-175 369q-21 31 -21 43q0 10 9 19.5t20 9.5q22 0 49 -52q52 -83 72 -114q91 -149 142.5 -336t51.5 -367q0 -193 -56.5 -390t-162.5 -372q-58 -95 -69.5 -110t-28.5 -15q-10 0 -18.5 9t-8.5 20z " />
<glyph unicode="*" d="M180 1108q0 17 10.5 29t24.5 12q12 0 27 -6l184 -78q30 -12 39 -12q5 0 9.5 6t4.5 12l-2 21l-10 223q-1 22 9.5 36.5t27.5 14.5t27.5 -14.5t9.5 -36.5l-13 -221v-25q0 -18 17 -18q3 0 30 12l191 74q20 4 25 4q13 0 23.5 -12t10.5 -27q0 -29 -37 -41l-198 -53 q-28 -6 -33.5 -9t-5.5 -12q0 -6 31 -47l116 -154q15 -18 15 -32q0 -15 -12 -27t-27 -12q-20 0 -37 26l-100 170q-19 32 -23 37.5t-12 5.5q-6 0 -10 -4.5t-21 -31.5l-109 -173q-17 -26 -36 -26q-15 0 -27 12t-12 27q0 14 14 35l125 155q27 31 27 39q0 9 -6.5 13.5t-36.5 13.5 l-193 53q-37 9 -37 41z" />
<glyph unicode="+" d="M94 702q0 31 37 31h340v359q0 38 33 38t33 -38v-359h340q17 0 26.5 -8.5t9.5 -22.5q0 -30 -36 -30h-340v-359q0 -39 -33 -39t-33 39v359h-340q-37 0 -37 30z" />
<glyph unicode="," horiz-adv-x="403" d="M141 66q0 37 23 62.5t57 25.5q38 0 62 -37.5t24 -100.5q0 -94 -53 -194q-50 -96 -78 -96q-8 0 -14 7.5t-6 16.5q0 13 20 39q32 44 51 92t19 84q0 27 -25 27h-10l-10 -2q-26 0 -43 22t-17 54z" />
<glyph unicode="-" horiz-adv-x="428" d="M0 500q0 17 11 27t30 10h346q18 0 29.5 -10t11.5 -25q0 -37 -41 -37h-346q-41 0 -41 35z" />
<glyph unicode="." horiz-adv-x="403" d="M125 68q0 32 22 53.5t54 21.5q33 0 55.5 -22.5t22.5 -54.5q0 -31 -22.5 -53.5t-53.5 -22.5q-32 0 -55 23t-23 55z" />
<glyph unicode="/" horiz-adv-x="1044" d="M-68 -315q0 11 9 26l913 1632q12 23 31 23q12 0 21 -9.5t9 -21.5q0 -13 -8 -24l-913 -1635q-11 -22 -31 -22q-12 0 -21.5 9.5t-9.5 21.5z" />
<glyph unicode="0" d="M88 680q0 349 106.5 529t313.5 180q407 0 407 -691q0 -354 -105.5 -537.5t-309.5 -183.5q-92 0 -170.5 42t-124.5 114q-64 101 -90.5 224.5t-26.5 322.5zM176 676q0 -186 22 -298.5t76 -203.5q34 -57 95.5 -91t130.5 -34q161 0 244 161t83 476q0 321 -79 476t-242 155 q-330 0 -330 -641z" />
<glyph unicode="1" d="M182 1061q0 28 58 63q0 -1 10 7t32 25.5t35 27.5q6 4 19.5 14.5t19.5 15.5q87 69 111 97q52 55 86 55q55 0 55 -76v-1188q0 -18 8 -26t25 -8h131q39 0 39 -35q0 -33 -39 -33h-424q-17 0 -27 9t-10 24q0 35 37 35h141q17 0 25 8t8 26v1115q0 40 -16 40q-13 0 -41 -32 q-19 -24 -152 -135q-52 -44 -68 -55t-28 -11q-13 0 -24 11.5t-11 25.5z" />
<glyph unicode="2" d="M88 39v45q0 20 27 51q34 39 80.5 92.5t67 77t51 59t43.5 50t33 37t29.5 33t23.5 25.5t25 26.5t23 23.5l29 29q184 193 242 321q24 49 24 140q0 123 -75 195.5t-201 72.5q-130 0 -207 -80t-94 -233q-6 -52 -43 -52q-17 0 -29 13.5t-12 33.5q0 107 63 218 q44 83 129.5 127.5t198.5 44.5q167 0 265 -93.5t98 -251.5q0 -89 -33 -161.5t-125 -184.5q-91 -112 -565 -630h647q17 0 25 8t8 26v138q0 47 38 47q39 0 39 -47v-199q0 -22 -9 -31.5t-30 -9.5h-749q-20 0 -28.5 8.5t-8.5 30.5z" />
<glyph unicode="3" d="M104 342q0 66 41 66q20 0 30 -19t15 -65q12 -119 98 -197t206 -78q133 0 217 87.5t84 225.5q0 135 -75.5 210t-223.5 85q-62 3 -62 39q0 24 17 31q8 6 69 10q121 6 191.5 83t70.5 202q0 132 -81 213.5t-212 81.5q-126 0 -204 -73.5t-97 -207.5q-6 -49 -43 -49 q-17 0 -29 13.5t-12 33.5q0 83 54 183q44 82 131 127t200 45q173 0 276 -100t103 -267q0 -129 -65.5 -213t-186.5 -109q-6 -3 -6 -4q0 -4 6 -4q15 -2 59 -18.5t64 -28.5q146 -95 146 -295q0 -163 -110 -268t-281 -105q-166 0 -278 104.5t-112 260.5z" />
<glyph unicode="4" d="M31 489q0 25 24 58l584 801q11 18 35 18h49q43 0 43 -39v-833q0 -15 14 -15h140q26 0 26 -35q0 -30 -26 -30h-134q-20 0 -20 -21v-305q0 -20 20 -20h123q39 0 39 -35q0 -33 -39 -33h-401q-39 0 -39 33q0 35 39 35h141q17 0 25 8t8 26v277q0 35 -33 35h-532q-86 0 -86 75z M92 479h574q16 0 16 17v794z" />
<glyph unicode="5" d="M129 332q0 25 11.5 39t31.5 14q25 0 33.5 -15.5t11.5 -64.5q8 -107 93 -181.5t200 -74.5q149 0 238.5 106.5t89.5 284.5q0 172 -84 269.5t-232 97.5q-217 0 -291 -207q-11 -37 -41 -37q-20 0 -33 15t-10 34v6l27 709q0 22 8.5 30.5t28.5 8.5h623q36 0 36 -33 q0 -35 -36 -35h-553q-17 0 -25 -8t-8 -26l-23 -582q38 94 119 143t195 49q178 0 284 -118q47 -51 74 -136t27 -184q0 -209 -113.5 -334t-302.5 -125q-109 0 -196 46.5t-132 130.5q-51 87 -51 178z" />
<glyph unicode="6" d="M100 559q0 223 40.5 399t117.5 285q46 68 126 107t173 39q97 0 171 -39.5t114 -112.5q49 -84 49 -168q0 -20 -11 -32.5t-30 -12.5q-35 0 -41 45q-34 248 -254 248q-208 0 -307 -252q-27 -71 -47.5 -202.5t-20.5 -233.5q100 239 342 239q177 0 283 -120.5t106 -321.5 t-111.5 -327t-289.5 -126q-106 0 -193 49.5t-137 137.5q-80 143 -80 399zM195 442q0 -183 84 -288t229 -105q146 0 232.5 102.5t86.5 274.5q0 170 -84.5 271.5t-226.5 101.5t-231.5 -99.5t-89.5 -257.5z" />
<glyph unicode="7" d="M88 1104v221q0 22 9 31.5t30 9.5h739q66 0 66 -72q0 -25 -33 -90q-1 -3 -3.5 -8.5t-7 -14.5t-7.5 -16q-2 -5 -7 -16t-14 -29t-16 -35q-144 -303 -222.5 -485.5t-226.5 -558.5q-12 -35 -23 -48t-30 -13q-15 0 -29 12.5t-14 27.5q0 48 88 226l109 254q128 312 272 606 l29 63q36 79 47 99q8 11 8 20q0 10 -12 10h-643q-17 0 -25 -8t-8 -26v-160q0 -47 -37 -47q-39 0 -39 47z" />
<glyph unicode="8" d="M106 365q0 138 71 227t206 123q-125 29 -192.5 113.5t-67.5 211.5q0 158 104 253.5t277 95.5q178 0 281.5 -91.5t103.5 -248.5q0 -132 -66 -217t-192 -117q130 -29 200 -119.5t70 -228.5q0 -174 -110.5 -282t-288.5 -108q-177 0 -286.5 107.5t-109.5 280.5zM193 375 q0 -145 86.5 -235.5t224.5 -90.5q139 0 225 88.5t86 231.5q0 148 -81 231.5t-226 83.5t-230 -84t-85 -225zM207 1036q0 -135 80 -214t217 -79q138 0 219.5 79t81.5 212q0 141 -82 211q-37 32 -95.5 52t-115.5 20q-140 0 -222.5 -76t-82.5 -205z" />
<glyph unicode="9" d="M94 940q0 201 112 327t290 126q106 0 192.5 -49.5t136.5 -137.5q80 -143 80 -399q0 -223 -41 -399.5t-119 -286.5q-46 -67 -125 -105.5t-171 -38.5q-97 0 -170 39t-113 111q-51 88 -51 170q0 20 11 32.5t30 12.5q35 0 41 -47q19 -125 81.5 -185.5t172.5 -60.5 q120 0 204.5 83.5t122.5 238.5q45 169 45 368q-28 -66 -52 -102t-58 -62q-96 -77 -230 -77q-177 0 -283 120.5t-106 321.5zM178 940q0 -170 85 -271.5t226 -101.5q143 0 232.5 100t89.5 261q0 180 -84 284.5t-229 104.5q-146 0 -233 -102.5t-87 -274.5z" />
<glyph unicode=":" horiz-adv-x="403" d="M125 68q0 32 22 53.5t54 21.5q33 0 55.5 -22.5t22.5 -54.5q0 -31 -22.5 -53.5t-53.5 -22.5q-32 0 -55 23t-23 55zM125 874q0 32 22 54t54 22q33 0 55.5 -22.5t22.5 -55.5q0 -31 -22.5 -53t-53.5 -22q-32 0 -55 22.5t-23 54.5z" />
<glyph unicode=";" horiz-adv-x="403" d="M125 66q0 37 23 62.5t57 25.5q38 0 62 -37.5t24 -100.5q0 -94 -53 -194q-50 -96 -78 -96q-8 0 -14.5 7.5t-6.5 16.5q0 12 21 39q32 43 50.5 91.5t18.5 84.5q0 15 -5.5 21t-18.5 6h-10l-11 -2q-26 0 -42.5 21.5t-16.5 54.5zM129 877q0 31 22.5 53t53.5 22q34 0 57 -23 t23 -55t-23 -54.5t-55 -22.5t-55 23t-23 57z" />
<glyph unicode="&#x3c;" horiz-adv-x="972" d="M66 643v80l843 393v-86l-755 -348l755 -348v-86z" />
<glyph unicode="=" d="M94 551q0 31 35 31h748q34 0 34 -31t-34 -31h-748q-35 0 -35 31zM94 856q0 31 35 31h748q34 0 34 -31t-34 -31h-748q-35 0 -35 31z" />
<glyph unicode="&#x3e;" horiz-adv-x="972" d="M66 248v86l753 348l-753 348v86l841 -395v-78z" />
<glyph unicode="?" horiz-adv-x="888" d="M92 1044q0 95 53 187q43 76 124 117t190 41q163 0 263.5 -97.5t100.5 -255.5q0 -94 -39.5 -171t-128.5 -156l-57 -54q-77 -68 -107.5 -128t-33.5 -150q-4 -87 -11 -101q-11 -18 -34 -18q-41 0 -41 66q0 188 71 280q11 18 28 35t79 74l53 49q129 120 129 274 q0 129 -74.5 207t-197.5 78q-151 0 -221 -100q-30 -42 -41.5 -76t-18.5 -105q-6 -47 -43 -47q-20 0 -31.5 14t-11.5 37zM336 70q0 32 22.5 53.5t55.5 21.5q32 0 55 -22.5t23 -54.5t-23 -55t-55 -23t-55 23t-23 57z" />
<glyph unicode="@" horiz-adv-x="1509" d="M88 563q0 162 65.5 314t174 263t257 178.5t306.5 67.5q232 0 382 -140t150 -355q0 -122 -48 -239.5t-132 -200.5q-110 -107 -266 -107h-49q-34 0 -37 31v12l8 41v4q0 2 -2.5 4t-3.5 2q-4 0 -43 -43q-29 -32 -85.5 -51.5t-117.5 -19.5q-118 0 -182 67.5t-64 192.5 q0 201 103 328.5t266 127.5q95 0 158 -49q8 -8 41 -55q3 -6 8 -6q8 0 8 10l8 47q3 19 11.5 26t27.5 7h109q30 0 30 -25q0 -24 -30 -24h-60q-17 0 -23 -6.5t-9 -24.5l-86 -510v-4q0 -17 7.5 -24t26.5 -7q43 0 70.5 8t79.5 35q86 46 149.5 177.5t63.5 265.5q0 197 -130 319.5 t-339 122.5q-145 0 -281.5 -62t-236.5 -165.5t-160.5 -244t-60.5 -290.5q0 -234 144 -377t380 -143q103 0 217.5 21.5t171.5 52.5q29 16 47 16q10 0 18.5 -9.5t8.5 -21.5q0 -18 -17 -28q-74 -41 -204 -68t-259 -27q-251 0 -411 164t-160 422zM471 604q0 -110 49.5 -168.5 t143.5 -58.5q119 0 184 74q47 52 75.5 144t28.5 191q0 102 -44 151.5t-136 49.5q-130 0 -215.5 -108.5t-85.5 -274.5z" />
<glyph unicode="A" horiz-adv-x="1376" d="M12 33q0 35 39 35h53q26 0 33 24l481 1241q13 39 50 39h39q36 0 49 -39l479 -1241q4 -15 11 -19.5t22 -4.5h55q39 0 39 -35q0 -33 -39 -33h-328q-39 0 -39 33q0 35 39 35h113q33 0 33 26q0 13 -4 19l-142 368q-7 25 -32 25h-557q-15 0 -22 -5t-13 -20l-142 -368 q-4 -6 -4 -19q0 -26 33 -26h115q39 0 39 -35q0 -33 -39 -33h-322q-39 0 -39 33zM424 598q0 -12 9 -19.5t24 -7.5h452q15 0 24 7.5t9 19.5t-4 18l-227 615q-11 31 -27 31q-18 0 -29 -31l-227 -615q-4 -12 -4 -18z" />
<glyph unicode="B" horiz-adv-x="1200" d="M66 33q0 35 38 35h121q17 0 25 8t8 26v1162q0 18 -8 26t-25 8h-121q-38 0 -38 35q0 33 38 33h582q195 0 293 -94q94 -94 94 -240q0 -85 -32.5 -153.5t-90.5 -108.5q-51 -36 -133 -55q74 -18 114 -34.5t75 -45.5q49 -40 76.5 -108t27.5 -150q0 -177 -113.5 -277 t-314.5 -100h-578q-38 0 -38 33zM344 102q0 -18 8 -26t25 -8h252q157 0 241 47q72 38 111 107.5t39 158.5q0 82 -32.5 145t-92.5 95q-50 28 -108.5 39.5t-151.5 11.5h-258q-33 0 -33 -35v-535zM344 772q0 -19 7.5 -27t25.5 -8h248q206 0 288 97q70 82 70 192q0 74 -33 136.5 t-90 94.5q-39 23 -91.5 32t-141.5 9h-250q-17 0 -25 -8t-8 -26v-492z" />
<glyph unicode="C" horiz-adv-x="1265" d="M90 690q0 258 96 424q74 129 199 202t274 73q200 0 336 -123q33 -31 52.5 -63t39.5 -87v203q0 47 39 47t39 -47v-397q0 -50 -37 -50q-20 0 -28 14t-10 44q-7 167 -125 277t-289 110q-229 0 -362.5 -169.5t-133.5 -461.5q0 -294 133 -465.5t361 -171.5q167 0 280.5 99.5 t132.5 261.5q3 32 13 46.5t30 14.5q19 0 30 -12.5t11 -32.5q0 -44 -18.5 -105t-48.5 -116q-57 -106 -172.5 -167t-257.5 -61q-270 0 -427 192t-157 521z" />
<glyph unicode="D" horiz-adv-x="1378" d="M66 33q0 35 36 35h123q17 0 25 8t8 26v1162q0 18 -8 26t-25 8h-123q-36 0 -36 35q0 33 36 33h484q144 0 230.5 -18.5t170.5 -65.5q301 -171 301 -600q0 -202 -78.5 -360t-216.5 -236q-82 -46 -179 -66t-241 -20h-471q-36 0 -36 33zM344 102q0 -19 7 -26.5t26 -7.5h196 q222 0 359 77q127 72 196.5 212t69.5 325q0 389 -268 541q-133 75 -340 75h-213q-17 0 -25 -8t-8 -26v-1162z" />
<glyph unicode="E" horiz-adv-x="1204" d="M66 33q0 35 38 35h123q17 0 25 8t8 26v1162q0 18 -8 26t-25 8h-123q-38 0 -38 35q0 33 38 33h934q21 0 30 -9.5t9 -31.5v-319q0 -48 -39 -48t-39 48v258q0 19 -7.5 26.5t-24.5 7.5h-588q-17 0 -25 -8t-8 -26v-500q0 -35 33 -35h303q33 0 33 35v149q0 45 37 45 q36 0 36 -45v-446q0 -45 -36 -45q-37 0 -37 45v162q0 35 -33 35h-303q-33 0 -33 -35v-527q0 -18 8 -26t25 -8h592q19 0 26 7.5t7 26.5v273q0 47 38 47q39 0 39 -47v-336q0 -22 -8.5 -30.5t-30.5 -8.5h-938q-38 0 -38 33z" />
<glyph unicode="F" horiz-adv-x="1101" d="M66 33q0 35 38 35h123q17 0 25 8t8 26v1162q0 18 -8 26t-25 8h-123q-38 0 -38 35q0 33 38 33h895q21 0 30 -9.5t9 -31.5v-321q0 -48 -39 -48q-38 0 -38 48v260q0 18 -7.5 26t-25.5 8h-549q-17 0 -25 -8t-8 -26v-521q0 -19 7 -26.5t26 -7.5h291q17 0 24.5 7.5t7.5 26.5 v144q0 45 37 45t37 -45v-428q0 -45 -37 -45t-37 45v149q0 35 -32 35h-291q-33 0 -33 -35v-506q0 -18 8 -26t25 -8h170q37 0 37 -35q0 -15 -10 -24t-27 -9h-445q-38 0 -38 33z" />
<glyph unicode="G" horiz-adv-x="1413" d="M90 678q0 178 56 329.5t153 239.5q157 142 389 142q206 0 334 -107q38 -31 59.5 -60.5t44.5 -84.5v182q0 47 39 47t39 -47v-401q0 -22 -10 -35t-27 -13q-36 0 -39 62q-1 169 -120.5 277t-302.5 108q-107 0 -204.5 -41.5t-166.5 -116.5q-71 -77 -112.5 -208.5 t-41.5 -278.5q0 -162 48 -291t137 -205q147 -129 335 -129q119 0 216 51t151 142q32 54 45.5 123t13.5 178q0 38 -7 50.5t-29 12.5h-170q-17 0 -27 9t-10 24t10 24t27 9h413q17 0 27 -9t10 -24t-10 -24t-27 -9h-96q-33 0 -33 -35v-522q0 -47 -39 -47t-39 47v199 q-23 -55 -43.5 -85t-58.5 -65q-134 -119 -332 -119q-124 0 -238 50t-196 141q-78 85 -123 221t-45 289z" />
<glyph unicode="H" horiz-adv-x="1449" d="M66 33q0 35 38 35h123q17 0 25 8t8 26v1162q0 18 -8 26t-25 8h-123q-38 0 -38 33q0 35 38 35h400q39 0 39 -35q0 -33 -39 -33h-125q-17 0 -25 -8t-8 -26v-502q0 -19 7.5 -27t25.5 -8h694q33 0 33 35v502q0 18 -8 26t-25 8h-121q-39 0 -39 35q0 33 39 33h394q38 0 38 -33 q0 -35 -38 -35h-121q-17 0 -25 -8t-8 -26v-1162q0 -19 7 -26.5t26 -7.5h121q38 0 38 -35q0 -33 -38 -33h-394q-39 0 -39 33q0 35 39 35h121q17 0 25 8t8 26v523q0 19 -8 26.5t-25 7.5h-694q-17 0 -25 -7.5t-8 -26.5v-523q0 -19 7 -26.5t26 -7.5h125q39 0 39 -35 q0 -33 -39 -33h-400q-38 0 -38 33z" />
<glyph unicode="I" horiz-adv-x="612" d="M63 33q0 35 37 35h129q17 0 25 8t8 26v1162q0 18 -8 26t-25 8h-129q-37 0 -37 35q0 15 10 24t27 9h408q39 0 39 -35q0 -33 -39 -33h-127q-17 0 -25 -8t-8 -26v-1162q0 -19 7 -26.5t26 -7.5h127q39 0 39 -35q0 -33 -39 -33h-408q-17 0 -27 9t-10 24z" />
<glyph unicode="J" horiz-adv-x="954" d="M39 385q0 61 45 61q26 0 35 -17.5t10 -74.5q9 -305 256 -305q76 0 134.5 31t90.5 88q23 43 32 95.5t9 148.5v852q0 19 -6.5 26.5t-23.5 7.5h-136q-34 0 -34 33q0 35 34 35h375q35 0 35 -35q0 -33 -35 -33h-92q-17 0 -24 -7.5t-7 -26.5v-850q0 -109 -10 -169t-37 -110 q-41 -75 -123 -116.5t-188 -41.5q-98 0 -175.5 39t-109.5 105q-55 104 -55 264z" />
<glyph unicode="K" horiz-adv-x="1206" d="M66 33q0 35 38 35h121q17 0 25 8t8 26v1162q0 18 -8 26t-25 8h-121q-38 0 -38 33q0 35 38 35h388q38 0 38 -35q0 -33 -38 -33h-115q-17 0 -25 -8t-8 -26v-529l547 508q24 21 24 35q0 20 -41 20h-55q-39 0 -39 33q0 35 39 35h291q39 0 39 -33q0 -35 -39 -35h-41 q-17 0 -29 -12l-579 -536q-12 -12 -12 -27q0 -10 12 -25l600 -618q12 -12 31 -12h36q39 0 39 -35q0 -33 -39 -33h-290q-39 0 -39 33q0 35 39 35h59q41 0 41 18q0 12 -23 35l-571 592v-611q0 -19 7 -26.5t26 -7.5h115q38 0 38 -35q0 -33 -38 -33h-388q-38 0 -38 33z" />
<glyph unicode="L" horiz-adv-x="1097" d="M63 33q0 35 39 35h123q17 0 25 8t8 26v1162q0 18 -8 26t-25 8h-123q-39 0 -39 33q0 35 39 35h447q39 0 39 -35q0 -33 -39 -33h-172q-17 0 -25 -8t-8 -26v-1162q0 -19 7 -26.5t26 -7.5h545q17 0 24.5 7.5t7.5 26.5v281q0 47 39 47t39 -47v-344q0 -21 -9 -30t-30 -9h-891 q-39 0 -39 33z" />
<glyph unicode="M" horiz-adv-x="1761" d="M57 33q0 35 39 35h135q17 0 25 8t8 26v1162q0 18 -8 26t-25 8h-135q-39 0 -39 33q0 35 39 35h295q17 0 25 -6t14 -23l279 -774l94 -262q16 -47 42.5 -121t35.5 -100q16 46 34.5 99t28.5 83l111 301l278 774q6 17 14 23t23 6h291q39 0 39 -33q0 -35 -39 -35h-133 q-18 0 -25.5 -8t-7.5 -26v-1162q0 -18 7.5 -26t25.5 -8h133q39 0 39 -35q0 -33 -39 -33h-399q-39 0 -39 33q0 35 39 35h116q19 0 26 11t7 42v1179h-12l-467 -1249q-9 -28 -22 -39.5t-33 -11.5q-39 0 -58 51l-463 1247h-12v-1196q0 -18 8 -26t25 -8h112q39 0 39 -35 q0 -33 -39 -33h-393q-39 0 -39 33z" />
<glyph unicode="N" horiz-adv-x="1449" d="M61 33q0 35 39 35h125q17 0 25 8t8 26v1162q0 18 -8 26t-25 8h-125q-39 0 -39 35q0 33 39 33h267q30 0 45 -27l692 -1208q13 -20 24 -20t11 20v1133q0 18 -7.5 26t-25.5 8h-133q-39 0 -39 33q0 35 39 35h385q39 0 39 -33q0 -35 -39 -35h-109q-17 0 -24.5 -7.5t-7.5 -26.5 v-1211q0 -31 -10.5 -44t-35.5 -13h-34q-34 0 -56 37l-731 1265h-4q-6 0 -6 -4v-1192q0 -19 7 -26.5t26 -7.5h133q37 0 37 -35q0 -15 -10 -24t-27 -9h-406q-39 0 -39 33z" />
<glyph unicode="O" horiz-adv-x="1380" d="M90 674q0 261 98 434q75 132 207.5 206.5t292.5 74.5q140 0 258.5 -54t200.5 -155q143 -179 143 -502q0 -178 -54 -326t-149 -231q-166 -144 -395 -144q-166 0 -299 74.5t-209 210.5q-94 158 -94 412zM180 694q0 -252 86 -409q65 -110 178 -173t248 -63q103 0 197 40 t162 112q70 75 109.5 207t39.5 292q0 285 -137.5 451t-372.5 166q-222 0 -364 -154q-66 -72 -106 -200t-40 -269z" />
<glyph unicode="P" horiz-adv-x="1105" d="M68 33q0 35 36 35h121q17 0 25 8t8 26v1162q0 18 -8 26t-25 8h-121q-36 0 -36 33q0 35 36 35h490q187 0 276 -51q83 -47 128.5 -136t45.5 -200q0 -109 -45.5 -197.5t-124.5 -132.5q-56 -31 -127.5 -44t-189.5 -13h-180q-33 0 -33 -35v-455q0 -18 8 -26t25 -8h158 q38 0 38 -35q0 -33 -38 -33h-431q-36 0 -36 33zM344 694q0 -19 7.5 -27t25.5 -8h180q175 0 260 46q65 37 101 109.5t36 164.5q0 94 -36.5 167t-102.5 111q-74 41 -235 41h-203q-17 0 -25 -8t-8 -26v-570z" />
<glyph unicode="Q" horiz-adv-x="1353" d="M90 674q0 261 98 434q77 134 208 207.5t294 73.5q274 0 437 -186t163 -498q0 -170 -39 -307.5t-110 -217.5q-47 -54 -113 -108h186q37 0 37 -35q0 -32 -28 -35l-365 -2q-104 -23 -172 -23q-161 0 -293.5 75t-208.5 210q-94 158 -94 412zM180 694q0 -252 86 -409 q65 -110 178 -173t248 -63q103 0 197 40t162 112q70 75 109.5 207t39.5 292q0 285 -137.5 451t-372.5 166q-222 0 -364 -154q-66 -72 -106 -200t-40 -269z" />
<glyph unicode="R" horiz-adv-x="1253" d="M59 33q0 35 39 35h127q17 0 25 8t8 26v1162q0 18 -8 26t-25 8h-127q-39 0 -39 33q0 35 39 35h512q197 0 301 -59q75 -43 115.5 -121.5t40.5 -179.5q0 -86 -31 -158t-86 -115q-34 -29 -71.5 -44t-100.5 -27q85 -19 129.5 -70.5t81.5 -175.5l101 -322q4 -15 11.5 -20.5 t22.5 -5.5h76q39 0 39 -35q0 -33 -39 -33h-135q-22 0 -30.5 7t-14.5 30l-111 360q-38 122 -73 162q-34 40 -90 58t-146 18h-223q-33 0 -33 -35v-498q0 -18 8 -26t25 -8h129q39 0 39 -35q0 -33 -39 -33h-408q-39 0 -39 33zM344 737q0 -19 7.5 -27t25.5 -8h221q171 0 248 46 q60 34 94.5 103t34.5 153q0 172 -127 245q-83 49 -238 49h-233q-17 0 -25 -8t-8 -26v-527z" />
<glyph unicode="S" horiz-adv-x="1046" d="M104 47v371q0 22 10 34.5t27 12.5q36 0 39 -57q6 -157 107 -258t252 -101q143 0 233 84t90 217q0 102 -53.5 162t-190.5 111l-165 61q-109 40 -163 68t-91 63q-88 82 -88 219q0 155 108 255t277 100q258 0 360 -226v156q0 47 39 47t39 -47v-358q0 -50 -37 -50 q-21 0 -29 15q-6 10 -14 80q-17 143 -110 227t-234 84q-132 0 -218.5 -79.5t-86.5 -201.5q0 -95 61 -156t207 -114l182 -64q161 -57 231 -138t70 -210q0 -167 -110 -272t-287 -105q-275 0 -377 244v-174q0 -47 -39 -47t-39 47z" />
<glyph unicode="T" horiz-adv-x="1193" d="M66 997v328q0 22 8.5 31.5t29.5 9.5h988q21 0 29.5 -9.5t8.5 -31.5v-328q0 -47 -38 -47q-39 0 -39 47v267q0 18 -7.5 26t-25.5 8h-346q-18 0 -25.5 -8t-7.5 -26v-1162q0 -19 7 -26.5t26 -7.5h166q37 0 37 -35q0 -15 -10 -24t-27 -9h-484q-39 0 -39 33q0 35 39 35h166 q18 0 25.5 8t7.5 26v1162q0 18 -7.5 26t-25.5 8h-346q-18 0 -25.5 -8t-7.5 -26v-267q0 -47 -39 -47q-38 0 -38 47z" />
<glyph unicode="U" horiz-adv-x="1398" d="M49 1331q0 35 39 35h395q37 0 37 -35q0 -15 -10 -24t-27 -9h-137q-18 0 -25.5 -8t-7.5 -26v-744q0 -179 62 -289q104 -182 334 -182q188 0 289.5 124.5t101.5 354.5v736q0 18 -8 26t-25 8h-137q-17 0 -27 9t-10 24q0 35 37 35h385q39 0 39 -33q0 -35 -39 -35h-105 q-17 0 -24.5 -7.5t-7.5 -26.5v-732q0 -114 -16.5 -190t-53.5 -143q-129 -222 -403 -222q-136 0 -241 57t-167 163q-70 126 -70 325v742q0 19 -7.5 26.5t-24.5 7.5h-107q-39 0 -39 33z" />
<glyph unicode="V" horiz-adv-x="1343" d="M12 1333q0 33 39 33h357q38 0 38 -35q0 -33 -38 -33h-138q-32 0 -32 -26q0 -7 4 -19l317 -862q96 -299 98 -303q6 -6 11 -6q11 0 14 14q2 6 13 38t36.5 106t52.5 151l312 862q4 6 4 19q0 26 -33 26h-133q-39 0 -39 35q0 33 39 33h356q39 0 39 -33q0 -35 -39 -35h-71 q-15 0 -22 -4.5t-11 -19.5l-447 -1221q-11 -31 -24 -44t-33 -13h-37q-36 0 -55 57l-443 1221q-6 15 -12.5 19.5t-21.5 4.5h-62q-39 0 -39 35z" />
<glyph unicode="W" horiz-adv-x="1794" d="M12 1333q0 33 39 33h348q39 0 39 -35q0 -33 -39 -33h-139q-33 0 -33 -26q0 -9 2 -17l234 -987q0 -2 2 -12.5t6.5 -31t7.5 -40.5q17 -86 25 -86q5 0 24 84q14 54 23 86l280 1041q14 57 52 57h39q38 0 53 -57l274 -1041q16 -61 24.5 -94t14 -50.5t7.5 -21.5t5 -4q7 0 23 86 q3 16 7 36.5t6 32.5t3 15l236 987q2 6 2 17q-3 26 -33 26h-139q-39 0 -39 33q0 35 39 35h336q39 0 39 -35q0 -33 -39 -33h-53q-18 0 -25 -5.5t-10 -22.5l-287 -1213q-6 -26 -20 -41.5t-31 -15.5h-35q-35 0 -51 55l-287 1075q-29 114 -34.5 133t-10.5 19q-4 0 -10.5 -21.5 t-34.5 -132.5l-285 -1071q-15 -57 -51 -57h-39q-37 0 -49 57l-283 1213q-4 17 -11.5 22.5t-22.5 5.5h-60q-39 0 -39 35z" />
<glyph unicode="X" horiz-adv-x="1384" d="M12 33q0 35 39 35h78q20 0 31 16l471 618q2 2 2 9q0 8 -2 10l-430 563q-13 16 -31 16h-80q-39 0 -39 33t39 33h363q39 0 39 -33q0 -15 -10.5 -25t-28.5 -10h-101q-33 0 -33 -28q0 -8 11 -23l350 -465q6 -6 12 -6q1 0 10 6l355 465q10 10 10 23q0 28 -33 28h-92 q-18 0 -28.5 10t-10.5 25q0 33 39 33h346q39 0 39 -33q0 -15 -11 -25t-28 -10h-80q-19 0 -30 -16l-428 -561q-5 -7 -5 -10q0 -4 5 -9l471 -618q11 -16 30 -16h80q39 0 39 -35q0 -33 -39 -33h-383q-39 0 -39 33q0 35 39 35h121q33 0 33 28q0 13 -10 23l-394 520q-6 6 -10 6 q-7 0 -10 -6l-399 -520q-11 -18 -11 -23q0 -28 35 -28h119q39 0 39 -35q0 -33 -39 -33h-371q-39 0 -39 33z" />
<glyph unicode="Y" horiz-adv-x="1214" d="M12 1331q0 35 39 35h338q39 0 39 -33q0 -35 -39 -35h-108q-33 0 -33 -28q0 -10 8 -21l348 -600h10l351 600q8 11 8 23q0 26 -33 26h-109q-38 0 -38 35q0 33 38 33h330q39 0 39 -33q0 -35 -39 -35h-61q-21 0 -31 -18l-414 -700q-8 -12 -8 -27v-451q0 -18 7.5 -26t25.5 -8 h168q39 0 39 -35q0 -33 -39 -33h-488q-38 0 -38 33q0 35 38 35h168q18 0 25.5 8t7.5 26v451q0 15 -8 27l-410 700q-10 18 -32 18h-60q-39 0 -39 33z" />
<glyph unicode="Z" horiz-adv-x="1200" d="M96 72q0 26 33 69l844 1137q4 4 4 8q0 12 -14 12h-732q-17 0 -24.5 -7.5t-7.5 -26.5v-258q0 -48 -39 -48t-39 48v319q0 22 9 31.5t30 9.5h844q35 0 54 -17.5t19 -48.5q0 -28 -24 -59l-854 -1153q-4 -4 -4 -10q0 -10 14 -10h776q17 0 25 8t8 26v277q0 47 39 47t39 -47 v-340q0 -21 -9 -30t-30 -9h-879q-39 0 -60.5 19t-21.5 53z" />
<glyph unicode="[" horiz-adv-x="530" d="M182 -307v1634q0 22 8.5 30.5t30.5 8.5h152q35 0 35 -29q0 -30 -35 -30h-84q-18 0 -25.5 -8t-7.5 -27v-1524q0 -19 7.5 -27t25.5 -8h84q35 0 35 -28q0 -31 -35 -31h-152q-22 0 -30.5 8.5t-8.5 30.5z" />
<glyph unicode="\" horiz-adv-x="1044" d="M127 1335q0 12 10 21.5t23 9.5q16 0 28 -23l914 -1632q8 -13 8 -26q0 -12 -9.5 -21.5t-21.5 -9.5q-16 0 -30 22l-914 1635q-8 11 -8 24z" />
<glyph unicode="]" horiz-adv-x="530" d="M123 -317q0 30 35 30h84q18 0 25 8t7 27v1524q0 35 -32 35h-84q-35 0 -35 30q0 29 35 29h151q22 0 30.5 -8.5t8.5 -30.5v-1634q0 -22 -8.5 -30.5t-30.5 -8.5h-151q-35 0 -35 29z" />
<glyph unicode="^" horiz-adv-x="972" d="M78 791l360 575h97l362 -575h-88l-324 516l-323 -516h-84z" />
<glyph unicode="_" horiz-adv-x="1024" d="M0 -162h1024v-65h-1024v65z" />
<glyph unicode="`" horiz-adv-x="983" d="M340 1331q0 17 13 29t30 12q21 0 41 -29l119 -182q10 -13 10 -24q0 -13 -10.5 -23t-22.5 -10q-18 0 -33 18l-133 174q-14 21 -14 35z" />
<glyph unicode="a" horiz-adv-x="1032" d="M84 260q0 80 37 147t100 101q62 32 144.5 45.5t224.5 13.5q86 0 115 -2q10 -2 24 -2q33 0 33 37v16q0 96 -16.5 147.5t-57.5 88.5q-68 59 -194 59q-129 0 -197.5 -48.5t-91.5 -157.5q-8 -41 -41 -41q-15 0 -27 12t-12 29q0 60 39.5 123t99.5 98q80 51 230 51 q186 0 274 -98q43 -44 59.5 -103.5t16.5 -167.5v-512q0 -35 33 -35h86q34 0 34 -30q0 -31 -34 -31h-160q-22 0 -30.5 8.5t-8.5 30.5v170q-57 -129 -138 -183.5t-216 -54.5q-151 0 -238.5 77.5t-87.5 211.5zM168 260q0 -103 68 -163t186 -60q229 0 305 190q12 31 22.5 104 t10.5 132q0 34 -29 37q-6 1 -85.5 3.5t-106.5 2.5q-371 0 -371 -246z" />
<glyph unicode="b" horiz-adv-x="1120" d="M27 31q0 30 34 30h107q33 0 33 35v1174q0 35 -33 35h-107q-34 0 -34 30q0 31 34 31h181q22 0 30.5 -8.5t8.5 -30.5v-584q56 120 140 177t208 57q195 0 304 -132.5t109 -367.5q0 -241 -109.5 -373.5t-309.5 -132.5q-250 0 -342 242v-174q0 -22 -8.5 -30.5t-30.5 -8.5h-181 q-34 0 -34 31zM279 487q0 -105 11.5 -169t39.5 -117q89 -164 280 -164q161 0 254.5 117.5t93.5 320.5q0 201 -93 319.5t-253 118.5q-188 0 -278 -161q-31 -52 -43 -111.5t-12 -153.5z" />
<glyph unicode="c" horiz-adv-x="983" d="M78 469q0 232 113 370t303 138q112 0 194 -52.5t117 -146.5v127q0 43 35 43q32 0 32 -43v-272q0 -43 -32 -43q-17 0 -25.5 11.5t-11.5 39.5q-13 126 -92.5 199t-202.5 73q-188 0 -281 -163q-65 -118 -65 -273q0 -111 34.5 -209t94.5 -153q80 -80 215 -80q115 0 197 63.5 t94 161.5q5 37 13.5 51.5t27.5 14.5q15 0 25.5 -11t10.5 -28q0 -44 -29 -106t-73 -111q-40 -46 -111 -72.5t-153 -26.5q-198 0 -314 134t-116 364z" />
<glyph unicode="d" horiz-adv-x="1118" d="M78 471q0 232 117 369t315 137q118 0 205.5 -55t130.5 -156v504q0 35 -33 35h-100q-35 0 -35 30q0 31 35 31h174q21 0 30 -9t9 -30v-1231q0 -35 32 -35h101q35 0 35 -30q0 -31 -35 -31h-174q-22 0 -30.5 8.5t-8.5 30.5v166q-87 -234 -346 -234q-196 0 -309 134t-113 366z M162 475q0 -206 93 -322t257 -116q190 0 274 147q34 58 48 128t14 177q0 98 -11.5 158.5t-39.5 110.5q-90 155 -279 155q-166 0 -261 -117t-95 -321z" />
<glyph unicode="e" d="M78 471q0 236 114 371t314 135q243 0 352 -189q31 -54 50.5 -133t19.5 -149q0 -24 -8 -33.5t-29 -9.5h-698q-33 0 -33 -39q0 -41 19.5 -117.5t39.5 -107.5q44 -78 124 -121t183 -43q250 0 312 231q8 39 34 39q15 0 25 -11t10 -26q0 -37 -28.5 -92.5t-71.5 -101.5 q-95 -103 -291 -103q-206 0 -322 132.5t-116 367.5zM164 555q0 -31 29 -31h622q31 0 31 33q0 46 -15 101t-40 98q-44 76 -117.5 116.5t-167.5 40.5q-93 0 -167 -40.5t-114 -112.5q-27 -50 -44 -107.5t-17 -97.5z" />
<glyph unicode="f" horiz-adv-x="591" d="M27 918q0 30 34 30h113q33 0 33 35v68q0 140 43 219q32 54 90.5 86.5t124.5 32.5q71 0 110 -13.5t39 -36.5q0 -12 -7.5 -21t-16.5 -9q-7 0 -19 4q-48 10 -84 10q-54 0 -99.5 -24.5t-68.5 -65.5q-32 -55 -32 -189v-61q0 -35 32 -35h156q35 0 35 -30q0 -31 -35 -31h-156 q-32 0 -32 -35v-756q0 -35 32 -35h123q37 0 37 -30q0 -31 -37 -31h-364q-17 0 -27 8.5t-10 22.5q0 30 37 30h96q33 0 33 35v756q0 35 -33 35h-113q-34 0 -34 31z" />
<glyph unicode="g" horiz-adv-x="1114" d="M80 502q0 115 38 217t103 162q107 96 275 96q127 0 216 -58.5t130 -168.5v159q0 22 8.5 30.5t28.5 8.5h180q35 0 35 -30q0 -31 -35 -31h-107q-32 0 -32 -35v-799q0 -110 -15.5 -175t-54.5 -118q-54 -69 -130 -100t-194 -31q-162 0 -256 52q-55 31 -94 87.5t-39 106.5 q0 19 12 31t31 12q29 0 37 -37q24 -90 82 -131q37 -25 99 -40t126 -15q100 0 172.5 33.5t100.5 93.5q26 56 34.5 122t8.5 199v90q-32 -101 -124.5 -161t-215.5 -60q-192 0 -306 133.5t-114 356.5zM164 492q0 -186 95.5 -301t250.5 -115q91 0 167 41.5t116 113.5 q28 47 38.5 107.5t10.5 165.5t-14 161.5t-52 110.5q-92 135 -264 135q-161 0 -254.5 -112.5t-93.5 -306.5z" />
<glyph unicode="h" horiz-adv-x="1103" d="M31 31q0 30 35 30h102q33 0 33 35v1174q0 35 -33 35h-102q-35 0 -35 30q0 31 35 31h176q22 0 30.5 -8.5t8.5 -30.5v-559q87 209 321 209q72 0 136 -24.5t104 -67.5q73 -76 73 -246v-543q0 -19 7.5 -27t25.5 -8h101q34 0 34 -30q0 -31 -34 -31h-344q-37 0 -37 31 q0 30 37 30h98q33 0 33 35v527q0 148 -61.5 219t-188.5 71q-137 0 -221 -95.5t-84 -252.5v-469q0 -35 32 -35h99q34 0 34 -30q0 -31 -34 -31h-346q-35 0 -35 31z" />
<glyph unicode="i" horiz-adv-x="479" d="M41 31q0 30 35 30h96q33 0 33 35v756q0 35 -33 35h-96q-35 0 -35 31q0 30 35 30h170q22 0 30.5 -8.5t8.5 -30.5v-813q0 -35 32 -35h86q35 0 35 -30q0 -31 -35 -31h-327q-35 0 -35 31zM168 1243q0 29 20.5 49.5t51.5 20.5t52 -20.5t21 -51.5q0 -28 -21 -49t-50 -21 q-31 0 -52.5 21.5t-21.5 50.5z" />
<glyph unicode="j" horiz-adv-x="454" d="M-47 -322q0 13 9 23t20 10q4 0 24 -4q24 -8 55 -8q85 0 121 61q23 45 23 146v946q0 35 -33 35h-102q-35 0 -35 31q0 30 35 30h174q37 0 37 -39v-1003q0 -92 -14 -143t-48 -80q-54 -48 -143 -48q-66 0 -94.5 10t-28.5 33zM160 1243q0 29 21 49.5t50 20.5q31 0 52.5 -20.5 t21.5 -51.5q0 -28 -21.5 -49t-50.5 -21q-31 0 -52 21.5t-21 50.5z" />
<glyph unicode="k" horiz-adv-x="1028" d="M31 31q0 30 35 30h102q33 0 33 35v1174q0 35 -33 35h-102q-35 0 -35 30q0 31 35 31h174q21 0 30 -9t9 -30v-887l423 396q23 20 23 32q0 8 -10 13.5t-27 5.5h-47q-37 0 -37 31q0 30 37 30h287q35 0 35 -30q0 -31 -35 -31h-64q-12 0 -28 -13l-277 -258q-14 -12 -14 -24 q0 -7 8 -23l315 -489q8 -11 14 -15t19 -4h53q37 0 37 -30q0 -14 -10 -22.5t-27 -8.5h-276q-37 0 -37 31q0 30 37 30h55q39 0 39 19q0 9 -16 33l-256 397q-10 18 -27 18q-10 0 -22 -12l-172 -160v-260q0 -19 7 -27t25 -8h90q35 0 35 -30q0 -31 -35 -31h-335q-35 0 -35 31z " />
<glyph unicode="l" horiz-adv-x="471" d="M31 31q0 30 37 30h100q33 0 33 35v1174q0 35 -33 35h-100q-37 0 -37 30q0 31 37 31h174q21 0 30 -9t9 -30v-1231q0 -19 7 -27t25 -8h95q34 0 34 -30q0 -31 -34 -31h-340q-17 0 -27 8.5t-10 22.5z" />
<glyph unicode="m" horiz-adv-x="1681" d="M33 31q0 30 37 30h104q33 0 33 35v756q0 35 -33 35h-104q-17 0 -27 8.5t-10 22.5q0 30 37 30h178q22 0 30.5 -8.5t8.5 -30.5v-143q85 211 311 211q225 0 281 -201q30 83 71 121q42 37 103.5 58.5t128.5 21.5q92 0 162 -35.5t108 -101.5q41 -75 41 -217v-527q0 -35 33 -35 h100q35 0 35 -30q0 -31 -35 -31h-340q-37 0 -37 31q0 30 37 30h94q33 0 33 35v510q0 134 -39 197q-60 108 -207 108q-78 0 -140.5 -34.5t-96.5 -96.5q-22 -37 -30.5 -84t-8.5 -133v-467q0 -19 7.5 -27t25.5 -8h90q37 0 37 -30q0 -31 -37 -31h-330q-35 0 -35 31q0 30 35 30 h94q33 0 33 35v486q0 95 -7.5 141t-29.5 84q-28 50 -80 77t-119 27q-79 0 -142 -36.5t-101 -104.5q-45 -78 -45 -219v-455q0 -35 32 -35h97q35 0 35 -30q0 -31 -35 -31h-346q-17 0 -27 8.5t-10 22.5z" />
<glyph unicode="n" horiz-adv-x="1114" d="M37 31q0 30 35 30h102q33 0 33 35v756q0 35 -33 35h-102q-15 0 -25 9t-10 22q0 30 35 30h176q22 0 30.5 -8.5t8.5 -30.5v-143q82 211 319 211q155 0 237.5 -82.5t82.5 -237.5v-561q0 -35 32 -35h99q37 0 37 -30q0 -31 -37 -31h-346q-35 0 -35 31q0 30 35 30h102 q33 0 33 35v545q0 130 -67.5 201t-192.5 71q-140 0 -219.5 -91.5t-79.5 -252.5v-473q0 -35 32 -35h101q37 0 37 -30q0 -31 -37 -31h-348q-15 0 -25 9t-10 22z" />
<glyph unicode="o" horiz-adv-x="1032" d="M78 494q0 215 123 349t321 134q201 0 316.5 -135.5t115.5 -370.5q0 -226 -119 -363t-315 -137q-204 0 -323 141t-119 382zM162 483q0 -114 35.5 -214t95.5 -154q89 -80 221 -80q166 0 261 116.5t95 317.5q0 206 -92 325t-252 119q-167 0 -265.5 -116.5t-98.5 -313.5z" />
<glyph unicode="p" horiz-adv-x="1112" d="M23 -315q0 30 34 30h101q32 0 32 35v1102q0 35 -32 35h-101q-34 0 -34 31q0 30 34 30h174q22 0 30.5 -8.5t8.5 -30.5v-178q38 121 124.5 183.5t215.5 62.5q198 0 311 -133.5t113 -368.5q0 -230 -113.5 -367t-304.5 -137q-126 0 -214 65t-132 191v-477q0 -19 7.5 -27 t25.5 -8h100q35 0 35 -30q0 -31 -35 -31h-346q-34 0 -34 31zM270 479q0 -116 23 -194.5t74 -141.5q89 -108 233 -108q70 0 134.5 27.5t109.5 78.5q47 51 76.5 144t29.5 194q0 200 -94 316t-258 116q-160 0 -244 -110.5t-84 -321.5z" />
<glyph unicode="q" horiz-adv-x="1114" d="M78 479q0 233 113 365.5t313 132.5q126 0 214.5 -60t123.5 -169v161q0 22 8.5 30.5t30.5 8.5h174q35 0 35 -30q0 -31 -35 -31h-101q-32 0 -32 -35v-1102q0 -35 32 -35h101q35 0 35 -30q0 -31 -35 -31h-353q-34 0 -34 31q0 30 34 30h107q33 0 33 35v451 q-35 -112 -122.5 -171t-215.5 -59q-92 0 -172.5 33.5t-136.5 95.5q-55 60 -86 160t-31 219zM162 473q0 -206 93 -322t257 -116q332 0 332 438q0 221 -81 329.5t-245 108.5q-169 0 -262.5 -115.5t-93.5 -322.5z" />
<glyph unicode="r" horiz-adv-x="690" d="M41 31q0 30 35 30h98q33 0 33 35v756q0 35 -33 35h-98q-35 0 -35 31q0 30 35 30h172q22 0 30.5 -8.5t8.5 -30.5v-147q15 50 30.5 77.5t42.5 51.5q45 39 106.5 62.5t119.5 23.5q32 0 51.5 -12.5t19.5 -32.5q0 -12 -6 -20.5t-14 -8.5l-21 2q-21 6 -45 6q-76 0 -147 -41 q-137 -80 -137 -315v-459q0 -35 32 -35h132q34 0 34 -30q0 -31 -34 -31h-375q-35 0 -35 31z" />
<glyph unicode="s" horiz-adv-x="884" d="M80 41v246q0 43 33 43q19 0 25 -12t12 -58q15 -101 95.5 -163t198.5 -62q123 0 199 59t76 154q0 90 -68 139q-45 29 -145 45l-123 19q-136 19 -199 65q-90 65 -90 186q0 122 92.5 198.5t239.5 76.5q104 0 174.5 -37t116.5 -115v82q0 43 35 43q32 0 32 -43v-237 q0 -41 -32 -41q-31 0 -31 45q-6 115 -79 176t-202 61q-117 0 -188.5 -55t-71.5 -147q0 -72 50.5 -118t148.5 -61l115 -16q92 -14 137 -28t82 -42q92 -67 92 -190q0 -129 -95 -206t-255 -77q-116 0 -189 42.5t-119 136.5v-109q0 -41 -32 -41q-35 0 -35 41z" />
<glyph unicode="t" horiz-adv-x="630" d="M0 918q0 14 9 22t24 8h110q18 0 25.5 8t7.5 27v154q0 49 41 49q39 0 39 -49v-154q0 -19 7.5 -27t25.5 -8h221q35 0 35 -30q0 -31 -35 -31h-221q-18 0 -25.5 -8t-7.5 -27v-582q0 -82 4.5 -116.5t18.5 -61.5q15 -26 44.5 -41.5t63.5 -15.5q31 0 59 14.5t43 38.5 q17 28 23 51t10 84q2 15 12 25t23 10q35 0 35 -49q0 -104 -59.5 -171t-153.5 -67q-55 0 -99.5 23t-66.5 63q-37 67 -37 213v582q0 19 -7.5 27t-25.5 8h-110q-33 0 -33 31z" />
<glyph unicode="u" horiz-adv-x="1099" d="M16 918q0 30 37 30h176q22 0 30.5 -8.5t8.5 -30.5v-565q0 -160 62.5 -233.5t197.5 -73.5q151 0 224 97.5t73 297.5v420q0 35 -32 35h-103q-35 0 -35 31q0 30 35 30h176q22 0 30.5 -8.5t8.5 -30.5v-813q0 -35 33 -35h104q37 0 37 -30q0 -31 -37 -31h-178q-22 0 -30.5 8.5 t-8.5 30.5v145q-63 -213 -309 -213q-208 0 -285 142q-43 76 -43 229v510q0 35 -32 35h-103q-17 0 -27 8.5t-10 22.5z" />
<glyph unicode="v" horiz-adv-x="1044" d="M6 918q0 13 10 21.5t25 8.5h293q35 0 35 -30q0 -31 -35 -31h-84q-14 0 -23.5 -7.5t-9.5 -19.5q0 -6 4 -18l236 -594l53 -135q1 -3 4 -11t7.5 -19t6.5 -17q10 25 21 47q3 8 8.5 23.5t7.5 21.5q35 85 37 90l238 594q4 12 4 18q0 12 -9 19.5t-24 7.5h-86q-35 0 -35 31 q0 30 35 30h276q37 0 37 -30q0 -14 -10 -22.5t-27 -8.5h-45q-13 0 -19.5 -5t-12.5 -20l-318 -792q-15 -37 -29.5 -53.5t-33.5 -16.5h-35q-20 0 -31.5 13.5t-30.5 56.5l-313 792q-6 15 -13 20t-22 5h-57q-35 0 -35 31z" />
<glyph unicode="w" horiz-adv-x="1632" d="M6 918q0 13 10 21.5t25 8.5h305q37 0 37 -30q0 -31 -37 -31h-92q-35 0 -35 -27q0 -2 4 -18l234 -742q6 -18 14 -18q6 0 12 18l260 783q21 65 58 65h35q33 0 57 -65l262 -789q7 -10 12 -10q6 0 13 10l237 748q2 6 2 16q-3 29 -33 29h-92q-37 0 -37 31q0 30 37 30h295 q35 0 35 -30q0 -31 -35 -31h-59q-15 0 -22 -5t-13 -22l-254 -799q-9 -28 -24.5 -44.5t-32.5 -16.5h-31q-37 0 -57 61l-232 684q-22 65 -32 87t-17 22q-6 0 -11.5 -13.5t-33.5 -95.5l-233 -690q-10 -31 -23 -43t-33 -12h-30q-19 0 -31.5 12.5t-22.5 42.5l-260 805 q-8 27 -35 27h-61q-35 0 -35 31z" />
<glyph unicode="x" horiz-adv-x="1101" d="M27 31q0 30 34 30h54q17 0 30 15l344 405q7 7 7 11q0 1 -7 8l-317 372q-12 15 -31 15h-49q-17 0 -27 8.5t-10 22.5q0 30 37 30h273q34 0 34 -30q0 -31 -34 -31h-50q-13 0 -21.5 -8.5t-8.5 -20.5q0 -11 10 -24l244 -287q9 -6 10 -6q4 0 10 6l244 289q12 15 12 24 q0 11 -9 19t-22 8h-47q-35 0 -35 31q0 30 35 30h275q35 0 35 -30q0 -31 -35 -31h-58q-18 0 -30 -15l-320 -372q-4 -8 -4 -11q0 -4 4 -8l344 -405q13 -15 31 -15h49q35 0 35 -30q0 -31 -35 -31h-291q-35 0 -35 31q0 30 35 30h68q13 0 22 8.5t9 20.5q0 10 -11 25l-270 315 q-6 6 -10 6q-7 0 -10 -6l-269 -315q-10 -13 -10 -25t9 -20.5t22 -8.5h63q35 0 35 -30q0 -31 -35 -31h-289q-34 0 -34 31z" />
<glyph unicode="y" horiz-adv-x="1048" d="M6 918q0 13 10 21.5t25 8.5h293q35 0 35 -30q0 -31 -35 -31h-86q-15 0 -24 -7.5t-9 -19.5q0 -4 4 -20l287 -682q12 -24 29 -76q9 21 14 35q2 5 4.5 11.5t5.5 13.5t4 10l281 690q4 12 4 18q0 12 -9.5 19.5t-23.5 7.5h-88q-17 0 -27 8.5t-10 22.5q0 30 37 30h279 q34 0 34 -30q0 -31 -34 -31h-43q-15 0 -22 -4.5t-13 -18.5l-416 -1011q-54 -131 -105 -176.5t-143 -45.5q-53 0 -85 12.5t-32 34.5q0 13 9 23t20 10q6 0 41 -8q21 -6 45 -6q60 0 100 36t74 120l51 127q1 3 2 7t2 6t1 3q0 2 -1 4.5t-2 6.5t-2 7l-360 850q-5 14 -11.5 18.5 t-21.5 4.5h-53q-35 0 -35 31z" />
<glyph unicode="z" horiz-adv-x="866" d="M72 61q0 33 22 60l588 745q6 6 6 13q0 8 -14 8h-498q-33 0 -33 -35v-115q0 -41 -34 -41q-35 0 -35 41v172q0 22 8.5 30.5t30.5 8.5h606q61 0 61 -59q0 -29 -26 -62l-592 -745q-4 -4 -4 -8q0 -13 12 -13h516q33 0 33 35v135q0 41 35 41q32 0 32 -41v-188q0 -23 -10 -33 t-33 -10h-608q-63 0 -63 61z" />
<glyph unicode="{" horiz-adv-x="661" d="M121 510q0 15 7 23t30 18q45 22 64.5 65t19.5 121v320q0 156 34 217q53 92 201 92h2q35 0 35 -31q0 -17 -10 -22.5t-43 -5.5q-146 -6 -146 -217v-349q0 -159 -71 -213q-21 -15 -21 -18q0 -4 21 -18q71 -51 71 -213v-349q0 -115 38 -163.5t132 -53.5q12 0 20.5 -8t8.5 -20 q0 -31 -45 -31q-66 0 -115.5 23.5t-74.5 66.5q-37 62 -37 219v320q0 84 -20.5 125t-74.5 67q-26 10 -26 35z" />
<glyph unicode="|" horiz-adv-x="976" d="M446 -342v1708h84v-1708h-84z" />
<glyph unicode="}" horiz-adv-x="661" d="M145 -315q0 18 9.5 23t44.5 7q145 6 145 215v349q0 159 72 213q20 12 20 18q0 5 -20 18q-72 51 -72 213v349q0 117 -38 165.5t-132 51.5q-12 2 -20.5 10t-8.5 20q0 31 45 31q66 0 116 -24t75 -68q37 -62 37 -219v-320q0 -85 19.5 -124.5t74.5 -65.5q27 -15 27 -37 q0 -15 -7 -23t-30 -18q-44 -20 -64 -64t-20 -122v-320q0 -154 -35 -217q-27 -43 -76.5 -67.5t-113.5 -24.5q-48 0 -48 31z" />
<glyph unicode="~" horiz-adv-x="1003" d="M201 608q6 75 55 125.5t115 50.5q65 0 149 -67q80 -66 123 -66q35 0 54 22t38 81q11 41 35 41q13 0 22 -9.5t9 -21.5q0 -31 -15 -68t-38 -65q-40 -49 -109 -49q-35 0 -64.5 13.5t-82.5 53.5q-79 62 -130 62q-39 0 -61 -23.5t-37 -81.5q-9 -37 -35 -37q-14 0 -21.5 11 t-6.5 28z" />
<glyph unicode="&#xa1;" horiz-adv-x="428" d="M137 874q0 32 22 54t54 22q33 0 55.5 -22.5t22.5 -55.5q0 -31 -22.5 -53t-53.5 -22q-32 0 -55 22.5t-23 54.5zM160 -375l20 998q0 39 31 39q29 0 29 -39l26 -998q0 -22 -8.5 -31.5t-28.5 -9.5h-32q-20 0 -28.5 9.5t-8.5 31.5z" />
<glyph unicode="&#xa2;" d="M100 696q0 216 105 352t280 148v141q0 43 33 43q35 0 35 -43v-141q86 -6 146.5 -42t111.5 -110q11 -16 14 -16q2 0 2 6v96q0 41 35 41t35 -41v-286q0 -19 -9 -30t-24 -11q-29 0 -35 45q-11 129 -83.5 203t-192.5 77v-856h8q62 -3 130 37.5t102 100.5q16 30 21.5 47 t14.5 65q7 31 33 31q14 0 23.5 -10t9.5 -25q0 -75 -53 -156.5t-125 -115.5q-38 -18 -61.5 -24t-96.5 -15l-6 -2v-150q0 -41 -35 -41q-15 0 -24 11t-9 30v150q-123 15 -200 69q-86 58 -135.5 171.5t-49.5 250.5zM188 698q0 -188 76 -296.5t221 -127.5v856 q-138 -12 -217.5 -128t-79.5 -304z" />
<glyph unicode="&#xa3;" d="M78 33q0 35 39 35h92q17 0 25 8t8 26v641h-125q-39 0 -39 35q0 33 39 33h125v162q0 169 51 260q43 74 121.5 115t177.5 41q139 0 233.5 -84t94.5 -209q0 -20 -11 -32.5t-28 -12.5q-20 0 -29 13.5t-14 49.5q-10 93 -77 148t-169 55q-154 0 -221 -113q-24 -42 -33.5 -93 t-9.5 -140v-160h209q38 0 38 -35q0 -33 -38 -33h-209v-641q0 -19 7.5 -26.5t24.5 -7.5h443q17 0 25 8t8 26v121q0 49 38 49q39 0 39 -49v-184q0 -21 -9 -30t-30 -9h-757q-39 0 -39 33z" />
<glyph unicode="&#xa4;" d="M117 328q0 12 14 26l96 103q-86 109 -86 245q0 137 86 246l-96 105q-14 11 -14 26q0 12 9 21.5t21 9.5q14 0 25 -14l98 -103q105 92 234 92q127 0 233 -92l99 103q11 14 24 14q12 0 21.5 -9.5t9.5 -21.5t-14 -26l-97 -103q86 -117 86 -245q0 -138 -88 -248l99 -103 q14 -14 14 -28q0 -12 -9.5 -21.5t-21.5 -9.5q-10 0 -24 14l-99 105q-103 -92 -233 -92q-128 0 -234 92l-98 -105q-12 -12 -25 -12q-12 0 -21 9.5t-9 21.5zM213 709q0 -132 84.5 -224t204.5 -92q122 0 207.5 91t85.5 221q0 127 -85.5 218t-205.5 91q-119 0 -205 -90.5 t-86 -214.5z" />
<glyph unicode="&#xa5;" d="M14 1333q0 33 39 33h289q39 0 39 -35q0 -33 -39 -33h-76q-14 0 -23.5 -7t-9.5 -19q0 -7 7 -21l268 -604l268 604q6 12 6 21q0 26 -34 26h-72q-39 0 -39 35q0 33 39 33h276q39 0 39 -35q0 -33 -39 -33h-59q-14 0 -20.5 -4.5t-12.5 -17.5l-205 -463h232q39 0 39 -33 q0 -35 -39 -35h-262l-62 -137h305q39 0 39 -33q0 -34 -39 -34h-323v-439q0 -18 7.5 -26t25.5 -8h167q39 0 39 -35q0 -33 -39 -33h-487q-39 0 -39 33q0 35 39 35h168q18 0 25.5 8t7.5 26v439h-322q-39 0 -39 34q0 33 39 33h303l-61 137h-260q-39 0 -39 35q0 33 39 33h229 l-203 463q-6 13 -12 17.5t-20 4.5h-60q-39 0 -39 35z" />
<glyph unicode="&#xa6;" horiz-adv-x="976" d="M446 313h84v-655h-84v655zM446 698v668h84v-668h-84z" />
<glyph unicode="&#xa7;" d="M141 608q0 86 51 152t146 104q-88 34 -135 96.5t-47 145.5q0 123 96 203t242 80q155 0 249.5 -85t94.5 -225q0 -20 -11 -32.5t-30 -12.5q-23 0 -33 17q-6 10 -14 71q-10 91 -80.5 147t-173.5 56q-109 0 -181.5 -61.5t-72.5 -153.5q0 -75 52.5 -124.5t194.5 -104.5 l132 -54q131 -53 187 -112t56 -146q0 -159 -188 -245q87 -35 133.5 -100t46.5 -152q0 -132 -98.5 -217.5t-251.5 -85.5q-109 0 -189.5 40.5t-121.5 116.5q-45 76 -45 160q0 22 10.5 35.5t29.5 13.5q25 0 33 -14t13 -64q10 -101 82.5 -161t183.5 -60q117 0 191.5 66t74.5 168 q0 147 -186 213l-199 71q-129 47 -185.5 106.5t-56.5 147.5zM231 616q0 -125 199 -194l186 -68q162 73 162 203q0 66 -44 111t-150 88l-189 75q-79 -34 -121.5 -89.5t-42.5 -125.5z" />
<glyph unicode="&#xa8;" horiz-adv-x="980" d="M229 1243q0 29 20.5 49.5t51.5 20.5t52.5 -20.5t21.5 -51.5q0 -28 -21.5 -49t-50.5 -21q-31 0 -52.5 21.5t-21.5 50.5zM606 1243q0 29 21.5 49.5t50.5 20.5q31 0 52.5 -20.5t21.5 -51.5q0 -28 -21.5 -49t-50.5 -21q-31 0 -52.5 21.5t-21.5 50.5z" />
<glyph unicode="&#xa9;" horiz-adv-x="1523" d="M90 682q0 192 90 355.5t245 258.5t337 95q185 0 339.5 -95t243.5 -259t89 -359q0 -192 -91 -354t-247.5 -255.5t-343.5 -93.5q-132 0 -254 57t-211.5 152.5t-143 226t-53.5 271.5zM156 682q0 -171 81 -319t219 -235t298 -87q127 0 241 50t195.5 136t129.5 205t48 252 q0 174 -81 321.5t-221 233.5t-304 86q-165 0 -304.5 -86t-220.5 -234t-81 -323zM397 680q0 185 92.5 294t249.5 109q167 0 244 -127v80q0 35 31 35q28 0 28 -35v-225q0 -37 -28 -37q-23 0 -29 41q-9 98 -73.5 156.5t-163.5 58.5q-131 0 -208 -94t-77 -254 q0 -163 76.5 -258.5t208.5 -95.5q98 0 158 53t77 154q8 38 33 38q13 0 22 -9t9 -23q0 -66 -41 -133q-34 -62 -103 -98t-155 -36q-161 0 -256 110t-95 296z" />
<glyph unicode="&#xaa;" horiz-adv-x="673" d="M63 956q0 78 56 131q28 26 95.5 42t150.5 16q55 0 84 -2h14q12 0 16 5.5t4 22.5q0 88 -37 127t-122 39q-152 0 -172 -116q-6 -35 -33 -35q-14 0 -22.5 9t-8.5 24q0 60 57 114q56 56 181 56q69 0 120 -24t76 -67q25 -46 25 -135v-282q0 -35 33 -35h32q29 0 29 -25 q0 -24 -29 -24h-88q-22 0 -30.5 8.5t-8.5 30.5v59q-34 -60 -84 -87.5t-125 -27.5q-100 0 -156.5 46.5t-56.5 129.5zM129 958q0 -60 40 -93.5t112 -33.5q200 0 200 244q0 23 -43 23q-41 -2 -71 -2q-124 0 -181 -33.5t-57 -104.5z" />
<glyph unicode="&#xab;" horiz-adv-x="643" d="M80 496q0 2 4 18l149 371q11 28 33 28q14 0 23.5 -9.5t9.5 -22.5q0 -7 -4 -23l-143 -360l143 -369q4 -16 4 -23q0 -12 -10.5 -21t-22.5 -9q-21 0 -33 26l-149 373q-4 20 -4 21zM303 496q0 2 4 18l150 371q11 28 32 28q14 0 23.5 -9.5t9.5 -22.5q0 -7 -4 -23l-143 -360 l143 -369q4 -16 4 -23q0 -12 -10 -21t-23 -9q-20 0 -32 26l-150 373q-4 20 -4 21z" />
<glyph unicode="&#xac;" horiz-adv-x="972" d="M66 479v76h843v-555h-84v479h-759z" />
<glyph unicode="&#xad;" horiz-adv-x="428" d="M0 500q0 17 11 27t30 10h346q18 0 29.5 -10t11.5 -25q0 -37 -41 -37h-346q-41 0 -41 35z" />
<glyph unicode="&#xae;" horiz-adv-x="1523" d="M90 682q0 192 90 355.5t245 258.5t337 95q185 0 339.5 -95t243.5 -259t89 -359q0 -192 -91 -354t-247.5 -255.5t-343.5 -93.5q-132 0 -254 57t-211.5 152.5t-143 226t-53.5 271.5zM156 682q0 -171 81 -319t219 -235t298 -87q127 0 241 50t195.5 136t129.5 205t48 252 q0 174 -81 321.5t-221 233.5t-304 86q-165 0 -304.5 -86t-220.5 -234t-81 -323zM422 313q0 25 31 25h53q33 0 33 35v612q0 35 -33 35h-53q-31 0 -31 24q0 27 31 27h299q139 0 206.5 -51.5t67.5 -157.5q0 -74 -37.5 -124t-107.5 -70q38 -15 58 -43t42 -95l61 -192h56 q30 0 30 -25q0 -26 -30 -26h-82q-24 0 -29 22l-65 207q-26 81 -59.5 106t-117.5 25h-110q-33 0 -33 -35v-239q0 -35 33 -35h55q13 0 21 -7t8 -18q0 -26 -29 -26h-237q-31 0 -31 26zM602 733q0 -19 7.5 -27t25.5 -8h110q109 0 161 39.5t52 122.5q0 82 -50.5 121t-155.5 39 h-117q-33 0 -33 -35v-252z" />
<glyph unicode="&#xaf;" horiz-adv-x="1003" d="M190 1243q0 35 43 35h535q45 0 45 -35q0 -37 -45 -37h-535q-43 0 -43 37z" />
<glyph unicode="&#xb0;" horiz-adv-x="819" d="M102 1096q0 131 91.5 220t224.5 89q126 0 212.5 -90t86.5 -221q0 -132 -89 -223t-218 -91t-218.5 91.5t-89.5 224.5zM217 1094q0 -82 56.5 -139.5t136.5 -57.5t135 57t55 140q0 80 -55 137t-131 57q-82 0 -139.5 -56.5t-57.5 -137.5z" />
<glyph unicode="&#xb1;" d="M94 117q0 30 37 30h746q34 0 34 -30q0 -31 -34 -31h-746q-17 0 -27 8.5t-10 22.5zM94 702q0 31 37 31h340v359q0 38 33 38t33 -38v-359h340q17 0 26.5 -8.5t9.5 -22.5q0 -30 -36 -30h-340v-359q0 -39 -33 -39t-33 39v359h-340q-37 0 -37 30z" />
<glyph unicode="&#xb2;" horiz-adv-x="626" d="M61 590q0 25 11 43t63 76l96 102q54 63 86 102q119 137 128 152q2 3 6 10q24 53 24 101q0 73 -42 115t-116 42q-76 0 -117.5 -43.5t-56.5 -138.5q-6 -33 -30 -33q-12 0 -21.5 10t-9.5 23q0 62 37 131q28 50 81 77t122 27q101 0 161 -55.5t60 -150.5q0 -31 -2.5 -50.5 t-18.5 -51.5t-35.5 -59.5t-68 -84.5t-102 -115t-150.5 -162q-12 -13 -47 -53h354q33 0 33 35v59q0 35 29 35q28 0 28 -35v-106q0 -22 -8.5 -30.5t-30.5 -8.5h-426q-37 0 -37 37z" />
<glyph unicode="&#xb3;" horiz-adv-x="626" d="M70 766q0 41 30 41q18 0 23.5 -11t11.5 -59q7 -60 57 -101.5t115 -41.5q76 0 125 51t49 129q0 77 -44 120.5t-128 49.5q-41 3 -41 29q0 17 10 21.5t46 6.5q66 3 107.5 49t41.5 115q0 75 -46.5 122.5t-121.5 47.5q-86 0 -135 -65q-17 -23 -23.5 -40t-13.5 -63 q-3 -30 -29 -30q-13 0 -21.5 9t-8.5 23q0 55 32 111q28 51 80.5 78.5t120.5 27.5q105 0 167.5 -60t62.5 -161q0 -146 -138 -194q148 -50 148 -201q0 -101 -67 -165t-171 -64q-103 0 -171 64t-68 161z" />
<glyph unicode="&#xb4;" horiz-adv-x="983" d="M430 1141q0 11 10 24l119 183q17 26 41 26q17 0 30 -12t13 -29q0 -14 -14 -35l-133 -172q-15 -18 -31 -18q-14 0 -24.5 10t-10.5 23z" />
<glyph unicode="&#xb5;" horiz-adv-x="1179" d="M68 -307q0 42 5 70.5t31 121.5q23 100 23 156v983h180v-678q0 -107 50 -167t139 -60q64 0 118.5 35.5t110.5 113.5l-2 756h182v-756q0 -83 28.5 -133.5t74.5 -50.5q35 0 63.5 40t34.5 99l55 -2q-22 -119 -84.5 -183.5t-156.5 -64.5q-79 0 -124.5 44.5t-70.5 146.5 q-85 -99 -161.5 -145t-157.5 -46q-50 0 -94 21t-105 74v-27q0 -71 24 -150q39 -126 39 -192t-28 -107t-72 -41t-73 41t-29 101z" />
<glyph unicode="&#xb6;" d="M61 983q0 91 30.5 173.5t82.5 133.5q79 76 279 76h442q35 0 35 -31q0 -30 -35 -30h-78q-33 0 -33 -35v-1379q0 -19 8 -26.5t25 -7.5h78q35 0 35 -31t-35 -31h-508q-15 0 -25 9t-10 22q0 31 35 31h90q17 0 25 7.5t8 26.5v689q0 24 -121 24q-87 0 -166 47 q-78 44 -120 129.5t-42 202.5zM582 -143h131v1448h-131v-1448z" />
<glyph unicode="&#xb7;" horiz-adv-x="403" d="M125 494q0 32 22 53.5t54 21.5q33 0 55.5 -22.5t22.5 -54.5q0 -31 -22.5 -53.5t-53.5 -22.5q-32 0 -55 23t-23 55z" />
<glyph unicode="&#xb8;" horiz-adv-x="972" d="M311 -358q0 10 7.5 18t15.5 8q12 0 28 -8q44 -18 91 -18q58 0 94.5 27.5t36.5 70.5q0 37 -29 61.5t-72 24.5q-31 0 -71 -14q-2 -1 -5 -2t-5 -2t-3 -1q-7 0 -12.5 6.5t-5.5 14.5q0 10 6 16l102 156h54l-70 -106q2 -9 4 -11q0 -4 3.5 -5t19.5 -1q17 0 45 4q12 0 37.5 -13 t42.5 -28q39 -34 39 -96q0 -66 -52 -112t-127 -46q-73 0 -123.5 16.5t-50.5 39.5z" />
<glyph unicode="&#xb9;" horiz-adv-x="626" d="M123 1188q0 10 13 23.5t50 41.5q63 46 105 86q36 33 57 33q35 0 35 -39v-694q0 -35 33 -35h57q14 0 22.5 -7t8.5 -17q0 -12 -8.5 -19.5t-22.5 -7.5h-248q-30 0 -30 27q0 24 30 24h64q33 0 33 35v664q-59 -57 -112.5 -100.5t-66.5 -43.5q-7 0 -13.5 9t-6.5 20z" />
<glyph unicode="&#xba;" horiz-adv-x="673" d="M57 1094q0 132 78 213.5t203 81.5q127 0 201.5 -82t74.5 -222t-75.5 -222.5t-202.5 -82.5q-126 0 -202.5 86.5t-76.5 227.5zM123 1094q0 -123 56.5 -193t154.5 -70q100 0 157.5 66.5t57.5 181.5q0 120 -55 189t-152 69q-100 0 -159.5 -66.5t-59.5 -176.5z" />
<glyph unicode="&#xbb;" horiz-adv-x="643" d="M121 109q0 6 4 22l143 361l-141 368q-6 12 -6 23q0 12 10.5 21t22.5 9q24 0 32 -28l150 -373q4 -12 4 -18q0 -7 -4 -19l-150 -371q-8 -28 -32 -28q-12 0 -22.5 10t-10.5 23zM344 109q0 6 4 22l144 361l-142 368q-6 12 -6 23q0 12 10.5 21t22.5 9q25 0 33 -28l149 -373 q4 -12 4 -18q0 -7 -4 -19l-149 -371q-8 -28 -33 -28q-12 0 -22.5 10t-10.5 23z" />
<glyph unicode="&#xbc;" horiz-adv-x="1447" d="M127 1188q0 12 13 25.5t50 39.5q74 55 105 86q36 33 59 33q35 0 35 -39v-694q0 -35 33 -35h57q31 0 31 -24q0 -27 -31 -27h-250q-28 0 -28 27q0 24 28 24h66q33 0 33 35v664q-59 -57 -113.5 -100.5t-67.5 -43.5q-7 0 -13.5 9t-6.5 20zM371 27q0 10 6 22l647 1297 q11 20 27 20q11 0 19.5 -8.5t8.5 -18.5t-6 -22l-647 -1297q-11 -20 -27 -20q-11 0 -19.5 8.5t-8.5 18.5zM850 287q0 26 10 43l346 469q16 22 51 22q21 0 30 -9t9 -30v-450q0 -35 33 -35h60q30 0 30 -25q0 -26 -30 -26h-60q-18 0 -25.5 -8t-7.5 -27v-125q0 -19 7.5 -27 t25.5 -8h47q14 0 22.5 -7t8.5 -17q0 -27 -31 -27h-237q-29 0 -29 27q0 24 29 24h65q33 0 33 35v125q0 35 -33 35h-317q-20 0 -28.5 9.5t-8.5 31.5zM903 297h301q33 0 33 35v420z" />
<glyph unicode="&#xbd;" horiz-adv-x="1447" d="M127 1188q0 12 13 25.5t50 39.5q74 55 105 86q36 33 59 33q35 0 35 -39v-694q0 -35 33 -35h57q31 0 31 -24q0 -27 -31 -27h-250q-28 0 -28 27q0 24 28 24h66q33 0 33 35v664q-59 -57 -113.5 -100.5t-67.5 -43.5q-7 0 -13.5 9t-6.5 20zM371 27q0 10 6 22l649 1297 q9 20 25 20q12 0 20 -8t8 -19q0 -10 -6 -22l-647 -1297q-11 -20 -27 -20q-11 0 -19.5 8.5t-8.5 18.5zM883 37q0 25 12.5 45.5t60.5 73.5q140 150 185 204q89 101 106 121.5t27 40.5q24 52 24 101q0 73 -42 115t-115 42q-76 0 -117.5 -43.5t-56.5 -140.5q-6 -33 -31 -33 q-12 0 -21.5 10t-9.5 25q0 60 37 129q28 51 81 79t122 28q101 0 161 -56t60 -151q0 -45 -8 -74t-52.5 -91t-108.5 -133t-208 -225q-13 -12 -47 -53h354q33 0 33 35v59q0 35 29 35q28 0 28 -35v-106q0 -22 -8 -30.5t-30 -8.5h-426q-39 0 -39 37z" />
<glyph unicode="&#xbe;" horiz-adv-x="1447" d="M70 764q0 43 30 43q18 0 23.5 -11t13.5 -59q7 -61 58 -102t118 -41q79 0 130 51t51 129q0 76 -44 120t-126 50q-41 0 -41 29q0 17 9.5 21.5t45.5 6.5q66 3 106.5 49t40.5 115q0 75 -45.5 122.5t-117.5 47.5q-89 0 -136 -65q-15 -22 -20.5 -39t-13.5 -62q-6 -32 -29 -32 q-13 0 -22 9t-9 23q0 52 33 113q26 49 78.5 76.5t118.5 27.5q104 0 165.5 -60t61.5 -161q0 -146 -137 -194q147 -50 147 -199q0 -103 -68.5 -167t-177.5 -64q-104 0 -173.5 64t-69.5 159zM383 27q0 10 6 22l639 1297q11 20 27 20q12 0 20 -8t8 -19q0 -10 -6 -22l-639 -1297 q-11 -20 -26 -20q-11 0 -20 8.5t-9 18.5zM856 285q0 31 8 43l346 477q11 16 45 16q23 0 32 -8.5t9 -30.5v-450q0 -35 33 -35h60q28 0 28 -27q0 -24 -28 -24h-60q-33 0 -33 -35v-125q0 -35 33 -35h47q29 0 29 -24q0 -27 -29 -27h-235q-29 0 -29 27q0 24 29 24h63q33 0 33 35 v125q0 35 -33 35h-311q-37 0 -37 39zM909 297h295q33 0 33 35v420z" />
<glyph unicode="&#xbf;" horiz-adv-x="886" d="M66 -84q0 93 39 170t128 156l60 53q78 74 108 132.5t33 145.5q2 66 3 79t7 22q11 18 33 18q24 0 33.5 -17.5t9.5 -60.5q0 -80 -19.5 -153.5t-51.5 -114.5q-3 -4 -5.5 -7.5t-5 -6.5t-6 -6.5t-6 -6.5t-8.5 -8.5t-9.5 -9t-12.5 -11.5t-14.5 -13.5t-18 -17t-21.5 -19.5 l-55 -52q-129 -120 -129 -272q0 -131 75.5 -208t202.5 -77q145 0 215 101q27 37 39.5 73t22.5 107q6 47 41 47q19 0 31 -13.5t12 -35.5q0 -93 -54 -186q-88 -160 -313 -160q-163 0 -263.5 97t-100.5 255zM401 877q0 31 22.5 53t53.5 22q34 0 57 -23t23 -55t-23 -54.5 t-55 -22.5t-55 23t-23 57z" />
<glyph unicode="&#xc0;" horiz-adv-x="1376" d="M12 33q0 35 39 35h53q26 0 33 24l481 1241q13 39 50 39h39q36 0 49 -39l479 -1241q4 -15 11 -19.5t22 -4.5h55q39 0 39 -35q0 -33 -39 -33h-328q-39 0 -39 33q0 35 39 35h113q33 0 33 26q0 13 -4 19l-142 368q-7 25 -32 25h-557q-15 0 -22 -5t-13 -20l-142 -368 q-4 -6 -4 -19q0 -26 33 -26h115q39 0 39 -35q0 -33 -39 -33h-322q-39 0 -39 33zM424 598q0 -12 9 -19.5t24 -7.5h452q15 0 24 7.5t9 19.5t-4 18l-227 615q-11 31 -27 31q-18 0 -29 -31l-227 -615q-4 -12 -4 -18zM541 1710q0 17 13 29t30 12q21 0 41 -29l120 -186 q11 -15 11 -25q0 -13 -10.5 -22.5t-22.5 -9.5q-18 0 -31 18l-137 178q-14 17 -14 35z" />
<glyph unicode="&#xc1;" horiz-adv-x="1376" d="M12 33q0 35 39 35h53q26 0 33 24l481 1241q13 39 50 39h39q36 0 49 -39l479 -1241q4 -15 11 -19.5t22 -4.5h55q39 0 39 -35q0 -33 -39 -33h-328q-39 0 -39 33q0 35 39 35h113q33 0 33 26q0 13 -4 19l-142 368q-7 25 -32 25h-557q-15 0 -22 -5t-13 -20l-142 -368 q-4 -6 -4 -19q0 -26 33 -26h115q39 0 39 -35q0 -33 -39 -33h-322q-39 0 -39 33zM424 598q0 -12 9 -19.5t24 -7.5h452q15 0 24 7.5t9 19.5t-4 18l-227 615q-11 31 -27 31q-18 0 -29 -31l-227 -615q-4 -12 -4 -18zM651 1513q0 9 8 25l125 188q20 29 43 29q17 0 30 -12t13 -29 q0 -15 -16 -37l-139 -178q-15 -18 -31 -18q-12 0 -22.5 9.5t-10.5 22.5z" />
<glyph unicode="&#xc2;" horiz-adv-x="1376" d="M12 33q0 35 39 35h53q26 0 33 24l481 1241q13 39 50 39h39q36 0 49 -39l479 -1241q4 -15 11 -19.5t22 -4.5h55q39 0 39 -35q0 -33 -39 -33h-328q-39 0 -39 33q0 35 39 35h113q33 0 33 26q0 13 -4 19l-142 368q-7 25 -32 25h-557q-15 0 -22 -5t-13 -20l-142 -368 q-4 -6 -4 -19q0 -26 33 -26h115q39 0 39 -35q0 -33 -39 -33h-322q-39 0 -39 33zM424 598q0 -12 9 -19.5t24 -7.5h452q15 0 24 7.5t9 19.5t-4 18l-227 615q-11 31 -27 31q-18 0 -29 -31l-227 -615q-4 -12 -4 -18zM463 1509q0 11 14 29l103 133q40 51 64.5 68.5t55.5 17.5 q30 0 55 -18t64 -68l99 -127q16 -16 16 -33q0 -15 -12 -26.5t-29 -11.5q-21 0 -37 22l-158 199l-163 -201q-17 -20 -35 -20q-15 0 -26 10.5t-11 25.5z" />
<glyph unicode="&#xc3;" horiz-adv-x="1376" d="M12 33q0 35 39 35h53q26 0 33 24l481 1241q13 39 50 39h39q36 0 49 -39l479 -1241q4 -15 11 -19.5t22 -4.5h55q39 0 39 -35q0 -33 -39 -33h-328q-39 0 -39 33q0 35 39 35h113q33 0 33 26q0 13 -4 19l-142 368q-7 25 -32 25h-557q-15 0 -22 -5t-13 -20l-142 -368 q-4 -6 -4 -19q0 -26 33 -26h115q39 0 39 -35q0 -33 -39 -33h-322q-39 0 -39 33zM387 1542q6 75 55 125.5t115 50.5t150 -67q80 -66 122 -66q35 0 54.5 22t38.5 81q11 41 34 41q13 0 22 -9.5t9 -21.5q0 -31 -15 -68t-38 -65q-40 -49 -109 -49q-35 0 -64.5 13.5t-82.5 53.5 q-79 62 -129 62q-40 0 -61.5 -23t-36.5 -82q-9 -37 -35 -37q-14 0 -22 11t-7 28zM424 598q0 -12 9 -19.5t24 -7.5h452q15 0 24 7.5t9 19.5t-4 18l-227 615q-11 31 -27 31q-18 0 -29 -31l-227 -615q-4 -12 -4 -18z" />
<glyph unicode="&#xc4;" horiz-adv-x="1376" d="M12 33q0 35 39 35h53q26 0 33 24l481 1241q13 39 50 39h39q36 0 49 -39l479 -1241q4 -15 11 -19.5t22 -4.5h55q39 0 39 -35q0 -33 -39 -33h-328q-39 0 -39 33q0 35 39 35h113q33 0 33 26q0 13 -4 19l-142 368q-7 25 -32 25h-557q-15 0 -22 -5t-13 -20l-142 -368 q-4 -6 -4 -19q0 -26 33 -26h115q39 0 39 -35q0 -33 -39 -33h-322q-39 0 -39 33zM420 1599q0 31 22 52.5t54 21.5t54.5 -22.5t22.5 -53.5t-22 -53t-53 -22q-32 0 -55 22.5t-23 54.5zM424 598q0 -12 9 -19.5t24 -7.5h452q15 0 24 7.5t9 19.5t-4 18l-227 615q-11 31 -27 31 q-18 0 -29 -31l-227 -615q-4 -12 -4 -18zM801 1597q0 32 22 54t54 22t54.5 -22t22.5 -54q0 -31 -22 -53t-53 -22q-32 0 -55 22t-23 53z" />
<glyph unicode="&#xc5;" horiz-adv-x="1376" d="M12 33q0 35 39 35h53q26 0 33 24l481 1241q13 39 50 39h39q36 0 49 -39l479 -1241q4 -15 11 -19.5t22 -4.5h55q39 0 39 -35q0 -33 -39 -33h-328q-39 0 -39 33q0 35 39 35h113q33 0 33 26q0 13 -4 19l-142 368q-7 25 -32 25h-557q-15 0 -22 -5t-13 -20l-142 -368 q-4 -6 -4 -19q0 -26 33 -26h115q39 0 39 -35q0 -33 -39 -33h-322q-39 0 -39 33zM424 598q0 -12 9 -19.5t24 -7.5h452q15 0 24 7.5t9 19.5t-4 18l-227 615q-11 31 -27 31q-18 0 -29 -31l-227 -615q-4 -12 -4 -18zM498 1630q0 78 55.5 134.5t134.5 56.5q78 0 133.5 -55.5 t55.5 -133.5q0 -80 -55.5 -135t-137.5 -55q-75 0 -130.5 56t-55.5 132zM551 1630q0 -55 39.5 -95t93.5 -40q59 0 99 39.5t40 97.5q0 56 -40 95.5t-97 39.5q-56 0 -95.5 -40t-39.5 -97z" />
<glyph unicode="&#xc6;" horiz-adv-x="1843" d="M12 33q0 15 10 25t25 10h21q13 0 19.5 4t12.5 16l650 1239q10 23 21.5 31t31.5 8h858q23 0 32 -9t9 -32v-319q0 -48 -39 -48t-39 48v258q0 19 -7 26.5t-26 7.5h-633q-17 0 -26.5 -7.5t-7.5 -18.5l2 -15l78 -491q3 -18 10 -24.5t24 -6.5h260q33 0 33 35v148q0 45 37 45 t37 -45v-449q0 -45 -37 -45t-37 45v166q0 35 -33 35h-241q-17 0 -27 -8.5t-8 -20.5q0 -4 2 -10l82 -533q3 -17 10.5 -23.5t24.5 -6.5h467q17 0 24.5 7.5t7.5 26.5v273q0 47 39 47t39 -47v-336q0 -21 -9 -30t-30 -9h-837q-39 0 -39 33q0 35 39 35h151q17 0 24 6.5t9 21.5v10 l-53 340q-3 17 -10.5 24t-24.5 7h-528q-23 0 -33 -20l-180 -340q-7 -14 -7 -23q0 -26 33 -26h115q39 0 39 -33q0 -35 -39 -35h-287q-39 0 -39 33zM440 569q0 -26 33 -26h449q32 0 32 30v9l-110 708q-4 15 -15 15q-12 0 -18 -15l-365 -698q-6 -12 -6 -23z" />
<glyph unicode="&#xc7;" horiz-adv-x="1263" d="M90 690q0 258 96 424q74 129 199 202t274 73q195 0 330 -119q35 -29 55.5 -61.5t42.5 -92.5v203q0 47 39 47t39 -47v-385q0 -49 -39 -49q-36 0 -39 57q-7 160 -125.5 267.5t-285.5 107.5q-229 0 -362.5 -169.5t-133.5 -461.5q0 -294 133 -465.5t361 -171.5 q167 0 281.5 100.5t131.5 260.5q3 32 13 46.5t30 14.5q18 0 29.5 -12.5t11.5 -32.5q0 -74 -41.5 -165.5t-101.5 -149.5q-128 -125 -338 -131l-63 -99q9 -6 12 -6h4q12 2 33 2q63 0 105 -39.5t42 -99.5q0 -67 -52.5 -113.5t-127.5 -46.5q-72 0 -123 16t-51 39q0 12 8 20.5 t17 8.5q13 0 26 -8q46 -19 92 -19q58 0 94.5 28.5t36.5 72.5q0 37 -29 61.5t-73 24.5q-29 0 -72 -15q-8 -4 -12 -4q-7 0 -12.5 6.5t-5.5 14.5q0 4 6 16l92 140q-257 15 -402 203.5t-145 506.5z" />
<glyph unicode="&#xc8;" horiz-adv-x="1204" d="M66 33q0 35 38 35h123q17 0 25 8t8 26v1162q0 18 -8 26t-25 8h-123q-38 0 -38 35q0 33 38 33h934q21 0 30 -9.5t9 -31.5v-319q0 -48 -39 -48t-39 48v258q0 19 -7.5 26.5t-24.5 7.5h-588q-17 0 -25 -8t-8 -26v-500q0 -35 33 -35h303q33 0 33 35v149q0 45 37 45 q36 0 36 -45v-446q0 -45 -36 -45q-37 0 -37 45v162q0 35 -33 35h-303q-33 0 -33 -35v-527q0 -18 8 -26t25 -8h592q19 0 26 7.5t7 26.5v273q0 47 38 47q39 0 39 -47v-336q0 -22 -8.5 -30.5t-30.5 -8.5h-938q-38 0 -38 33zM487 1710q0 17 13 29t30 12q24 0 41 -29l123 -186 q11 -15 11 -25q0 -13 -10.5 -22.5t-24.5 -9.5q-16 0 -31 18l-135 178q-17 20 -17 35z" />
<glyph unicode="&#xc9;" horiz-adv-x="1204" d="M66 33q0 35 38 35h123q17 0 25 8t8 26v1162q0 18 -8 26t-25 8h-123q-38 0 -38 35q0 33 38 33h934q21 0 30 -9.5t9 -31.5v-319q0 -48 -39 -48t-39 48v258q0 19 -7.5 26.5t-24.5 7.5h-588q-17 0 -25 -8t-8 -26v-500q0 -35 33 -35h303q33 0 33 35v149q0 45 37 45 q36 0 36 -45v-446q0 -45 -36 -45q-37 0 -37 45v162q0 35 -33 35h-303q-33 0 -33 -35v-527q0 -18 8 -26t25 -8h592q19 0 26 7.5t7 26.5v273q0 47 38 47q39 0 39 -47v-336q0 -22 -8.5 -30.5t-30.5 -8.5h-938q-38 0 -38 33zM600 1513q0 8 10 25l125 188q17 29 41 29 q17 0 30 -12t13 -29q0 -16 -14 -37l-141 -178q-12 -18 -31 -18q-12 0 -22.5 9.5t-10.5 22.5z" />
<glyph unicode="&#xca;" horiz-adv-x="1204" d="M66 33q0 35 38 35h123q17 0 25 8t8 26v1162q0 18 -8 26t-25 8h-123q-38 0 -38 35q0 33 38 33h934q21 0 30 -9.5t9 -31.5v-319q0 -48 -39 -48t-39 48v258q0 19 -7.5 26.5t-24.5 7.5h-588q-17 0 -25 -8t-8 -26v-500q0 -35 33 -35h303q33 0 33 35v149q0 45 37 45 q36 0 36 -45v-446q0 -45 -36 -45q-37 0 -37 45v162q0 35 -33 35h-303q-33 0 -33 -35v-527q0 -18 8 -26t25 -8h592q19 0 26 7.5t7 26.5v273q0 47 38 47q39 0 39 -47v-336q0 -22 -8.5 -30.5t-30.5 -8.5h-938q-38 0 -38 33zM414 1509q0 11 14 29l104 133q38 50 63 68t56 18 t55 -17.5t64 -68.5l100 -127q15 -19 15 -33q0 -15 -12 -26.5t-29 -11.5q-20 0 -37 22l-158 199l-164 -201q-17 -20 -34 -20q-15 0 -26 10.5t-11 25.5z" />
<glyph unicode="&#xcb;" horiz-adv-x="1204" d="M66 33q0 35 38 35h123q17 0 25 8t8 26v1162q0 18 -8 26t-25 8h-123q-38 0 -38 35q0 33 38 33h934q21 0 30 -9.5t9 -31.5v-319q0 -48 -39 -48t-39 48v258q0 19 -7.5 26.5t-24.5 7.5h-588q-17 0 -25 -8t-8 -26v-500q0 -35 33 -35h303q33 0 33 35v149q0 45 37 45 q36 0 36 -45v-446q0 -45 -36 -45q-37 0 -37 45v162q0 35 -33 35h-303q-33 0 -33 -35v-527q0 -18 8 -26t25 -8h592q19 0 26 7.5t7 26.5v273q0 47 38 47q39 0 39 -47v-336q0 -22 -8.5 -30.5t-30.5 -8.5h-938q-38 0 -38 33zM365 1599q0 31 21.5 52.5t53.5 21.5t55 -22.5 t23 -53.5t-22.5 -53t-53.5 -22q-32 0 -54.5 22.5t-22.5 54.5zM748 1597q0 32 21.5 54t53.5 22t55 -22t23 -54q0 -31 -22.5 -53t-53.5 -22q-32 0 -54.5 22t-22.5 53z" />
<glyph unicode="&#xcc;" horiz-adv-x="612" d="M63 33q0 35 37 35h129q17 0 25 8t8 26v1162q0 18 -8 26t-25 8h-129q-37 0 -37 35q0 15 10 24t27 9h408q39 0 39 -35q0 -33 -39 -33h-127q-17 0 -25 -8t-8 -26v-1162q0 -19 7 -26.5t26 -7.5h127q39 0 39 -35q0 -33 -39 -33h-408q-17 0 -27 9t-10 24zM162 1710q0 17 13 29 t30 12q24 0 39 -29l123 -186q10 -13 10 -25q0 -13 -10.5 -22.5t-22.5 -9.5q-15 0 -33 18l-135 178q-14 17 -14 35z" />
<glyph unicode="&#xcd;" horiz-adv-x="612" d="M63 33q0 35 37 35h129q17 0 25 8t8 26v1162q0 18 -8 26t-25 8h-129q-37 0 -37 35q0 15 10 24t27 9h408q39 0 39 -35q0 -33 -39 -33h-127q-17 0 -25 -8t-8 -26v-1162q0 -19 7 -26.5t26 -7.5h127q39 0 39 -35q0 -33 -39 -33h-408q-17 0 -27 9t-10 24zM268 1511q0 9 11 27 l124 188q20 29 41 29q17 0 30 -12t13 -29q0 -16 -14 -37l-139 -178q-15 -18 -33 -18q-12 0 -22.5 9t-10.5 21z" />
<glyph unicode="&#xce;" horiz-adv-x="620" d="M63 33q0 35 37 35h129q17 0 25 8t8 26v1162q0 18 -8 26t-25 8h-129q-37 0 -37 35q0 15 10 24t27 9h408q39 0 39 -35q0 -33 -39 -33h-127q-17 0 -25 -8t-8 -26v-1162q0 -19 7 -26.5t26 -7.5h127q39 0 39 -35q0 -33 -39 -33h-408q-17 0 -27 9t-10 24zM84 1509q0 11 14 29 l103 133q39 50 64.5 68t56.5 18q30 0 54.5 -17.5t63.5 -68.5l99 -127q16 -19 16 -33q0 -15 -12 -26.5t-29 -11.5q-20 0 -37 22l-160 199l-163 -201q-17 -20 -33 -20q-15 0 -26 10.5t-11 25.5z" />
<glyph unicode="&#xcf;" horiz-adv-x="614" d="M63 33q0 35 37 35h129q17 0 25 8t8 26v1162q0 18 -8 26t-25 8h-129q-37 0 -37 35q0 15 10 24t27 9h408q39 0 39 -35q0 -33 -39 -33h-127q-17 0 -25 -8t-8 -26v-1162q0 -19 7 -26.5t26 -7.5h127q39 0 39 -35q0 -33 -39 -33h-408q-17 0 -27 9t-10 24zM86 1599 q0 31 22.5 52.5t53.5 21.5q32 0 55 -22t23 -54q0 -31 -22.5 -53t-53.5 -22q-32 0 -55 22.5t-23 54.5zM371 1599q0 31 21.5 52.5t53.5 21.5t55 -22.5t23 -53.5t-22 -53t-53 -22q-32 0 -55 22.5t-23 54.5z" />
<glyph unicode="&#xd0;" horiz-adv-x="1390" d="M78 33q0 35 39 35h123q17 0 24.5 7.5t7.5 26.5v568h-155q-39 0 -39 35q0 32 39 32h155v527q0 19 -7.5 26.5t-24.5 7.5h-123q-39 0 -39 35q0 33 39 33h483q144 0 230.5 -18.5t170.5 -65.5q302 -171 302 -600q0 -202 -78.5 -360t-216.5 -236q-82 -46 -179 -66t-241 -20 h-471q-39 0 -39 33zM358 102q0 -19 7 -26.5t26 -7.5h197q221 0 358 77q127 72 196.5 212t69.5 323q0 390 -268 545q-135 73 -340 73h-213q-17 0 -25 -8t-8 -26v-527h422q39 0 39 -35q0 -32 -39 -32h-422v-568z" />
<glyph unicode="&#xd1;" horiz-adv-x="1449" d="M66 35q0 33 40 33h132q19 0 26.5 7.5t7.5 26.5v1162q0 19 -7.5 26.5t-26.5 7.5h-132q-40 0 -40 35q0 33 40 33h275q31 0 47 -27l633 -1017q131 -211 139 -211l2 2v1151q0 19 -8 26.5t-27 7.5h-143q-41 0 -41 35q0 33 41 33h406q40 0 40 -35q0 -33 -40 -33h-115 q-19 0 -27 -7.5t-8 -26.5v-1211q0 -31 -10 -44t-35 -13h-37q-32 0 -57 37l-776 1265h-13v-1196q0 -19 8 -26.5t27 -7.5h141q41 0 41 -33q0 -35 -41 -35h-422q-40 0 -40 35zM430 1542q8 75 56 125.5t114 50.5t150 -67q83 -66 122 -66q35 0 54.5 22t38.5 81q11 41 34 41 q12 0 21.5 -9.5t9.5 -21.5q0 -31 -15 -68t-38 -65q-40 -49 -109 -49q-35 0 -64.5 13.5t-82.5 53.5q-79 62 -129 62q-40 0 -61.5 -23.5t-34.5 -81.5q-9 -37 -35 -37q-15 0 -23.5 11t-7.5 28z" />
<glyph unicode="&#xd2;" horiz-adv-x="1380" d="M90 674q0 261 98 434q75 132 207.5 206.5t292.5 74.5q140 0 258.5 -54t200.5 -155q143 -179 143 -502q0 -178 -54 -326t-149 -231q-166 -144 -395 -144q-166 0 -299 74.5t-209 210.5q-94 158 -94 412zM180 694q0 -252 86 -409q65 -110 178 -173t248 -63q103 0 197 40 t162 112q70 75 109.5 207t39.5 292q0 285 -137.5 451t-372.5 166q-222 0 -364 -154q-66 -72 -106 -200t-40 -269zM557 1710q0 17 13 29t30 12q24 0 41 -29l123 -186q10 -13 10 -25q0 -13 -10.5 -22.5t-24.5 -9.5q-12 0 -30 18l-136 178q-16 19 -16 35z" />
<glyph unicode="&#xd3;" horiz-adv-x="1380" d="M90 674q0 261 98 434q75 132 207.5 206.5t292.5 74.5q140 0 258.5 -54t200.5 -155q143 -179 143 -502q0 -178 -54 -326t-149 -231q-166 -144 -395 -144q-166 0 -299 74.5t-209 210.5q-94 158 -94 412zM180 694q0 -252 86 -409q65 -110 178 -173t248 -63q103 0 197 40 t162 112q70 75 109.5 207t39.5 292q0 285 -137.5 451t-372.5 166q-222 0 -364 -154q-66 -72 -106 -200t-40 -269zM645 1511q0 11 8 27l125 188q20 29 43 29q17 0 30 -12t13 -29q0 -15 -16 -37l-139 -178q-15 -18 -31 -18q-12 0 -22.5 9t-10.5 21z" />
<glyph unicode="&#xd4;" horiz-adv-x="1380" d="M90 674q0 261 98 434q75 132 207.5 206.5t292.5 74.5q140 0 258.5 -54t200.5 -155q143 -179 143 -502q0 -178 -54 -326t-149 -231q-166 -144 -395 -144q-166 0 -299 74.5t-209 210.5q-94 158 -94 412zM180 694q0 -252 86 -409q65 -110 178 -173t248 -63q103 0 197 40 t162 112q70 75 109.5 207t39.5 292q0 285 -137.5 451t-372.5 166q-222 0 -364 -154q-66 -72 -106 -200t-40 -269zM463 1509q0 11 14 29l103 133q40 51 64.5 68.5t55.5 17.5q30 0 55 -18t64 -68l101 -127q14 -17 14 -33q0 -15 -12 -26.5t-29 -11.5q-21 0 -37 22l-158 199 l-163 -201q-17 -20 -35 -20q-15 0 -26 10.5t-11 25.5z" />
<glyph unicode="&#xd5;" horiz-adv-x="1380" d="M90 674q0 261 98 434q75 132 207.5 206.5t292.5 74.5q140 0 258.5 -54t200.5 -155q143 -179 143 -502q0 -178 -54 -326t-149 -231q-166 -144 -395 -144q-166 0 -299 74.5t-209 210.5q-94 158 -94 412zM180 694q0 -252 86 -409q65 -110 178 -173t248 -63q103 0 197 40 t162 112q70 75 109.5 207t39.5 292q0 285 -137.5 451t-372.5 166q-222 0 -364 -154q-66 -72 -106 -200t-40 -269zM389 1542q6 75 55 125.5t115 50.5t150 -67q83 -66 122 -66q35 0 54.5 22t38.5 81q11 41 34 41q12 0 21.5 -9.5t9.5 -21.5q0 -31 -15 -68t-38 -65 q-40 -49 -109 -49q-35 0 -64.5 13.5t-82.5 53.5q-79 62 -127 62q-45 0 -72 -35q-10 -13 -13.5 -22t-12.5 -48q-9 -37 -35 -37q-15 0 -23.5 11t-7.5 28z" />
<glyph unicode="&#xd6;" horiz-adv-x="1380" d="M90 674q0 261 98 434q75 132 207.5 206.5t292.5 74.5q140 0 258.5 -54t200.5 -155q143 -179 143 -502q0 -178 -54 -326t-149 -231q-166 -144 -395 -144q-166 0 -299 74.5t-209 210.5q-94 158 -94 412zM180 694q0 -252 86 -409q65 -110 178 -173t248 -63q103 0 197 40 t162 112q70 75 109.5 207t39.5 292q0 285 -137.5 451t-372.5 166q-222 0 -364 -154q-66 -72 -106 -200t-40 -269zM422 1599q0 31 22 52.5t54 21.5t54.5 -22.5t22.5 -53.5t-22 -53t-53 -22q-32 0 -55 22.5t-23 54.5zM805 1597q0 32 22 54t54 22t54.5 -22t22.5 -54 q0 -31 -22 -53t-53 -22q-32 0 -55 22t-23 53z" />
<glyph unicode="&#xd7;" d="M168 383q0 13 14 27l279 292l-279 293q-14 14 -14 29q0 12 9.5 21.5t21.5 9.5q9 0 24 -15l279 -292l278 292q15 15 27 15q11 0 20 -9.5t9 -21.5q0 -15 -15 -27l-278 -295l278 -292q15 -12 15 -27q0 -12 -9.5 -21.5t-21.5 -9.5q-13 0 -25 15l-278 292l-279 -292 q-12 -15 -26 -15q-11 0 -20 9.5t-9 21.5z" />
<glyph unicode="&#xd8;" horiz-adv-x="1390" d="M94 682q0 335 160 527t440 192q237 0 406 -158l125 158q13 16 26 16q12 0 21.5 -9.5t9.5 -21.5q0 -14 -12 -26l-127 -160q151 -176 151 -498q0 -194 -53 -345.5t-151 -237.5q-164 -142 -396 -142q-235 0 -403 154l-123 -156q-13 -16 -29 -16q-12 0 -21 10t-9 23 q0 11 12 26l125 158q-79 99 -115.5 220t-36.5 286zM184 676q0 -275 115 -436l752 944q-54 66 -152.5 105.5t-204.5 39.5q-133 0 -246 -62t-174 -169q-90 -166 -90 -422zM340 193q152 -146 352 -146q106 0 201 40.5t162 113.5q69 75 109 209.5t40 291.5q0 274 -112 433z" />
<glyph unicode="&#xd9;" horiz-adv-x="1398" d="M49 1331q0 35 39 35h395q37 0 37 -35q0 -15 -10 -24t-27 -9h-137q-18 0 -25.5 -8t-7.5 -26v-744q0 -179 62 -289q104 -182 334 -182q188 0 289.5 124.5t101.5 354.5v736q0 18 -8 26t-25 8h-137q-17 0 -27 9t-10 24q0 35 37 35h385q39 0 39 -33q0 -35 -39 -35h-105 q-17 0 -24.5 -7.5t-7.5 -26.5v-732q0 -114 -16.5 -190t-53.5 -143q-129 -222 -403 -222q-136 0 -241 57t-167 163q-70 126 -70 325v742q0 19 -7.5 26.5t-24.5 7.5h-107q-39 0 -39 33zM571 1710q0 17 13 29t30 12q24 0 41 -29l123 -186q10 -17 10 -25q0 -13 -10 -22.5 t-24 -9.5q-13 0 -31 18l-135 178q-17 20 -17 35z" />
<glyph unicode="&#xda;" horiz-adv-x="1398" d="M49 1331q0 35 39 35h395q37 0 37 -35q0 -15 -10 -24t-27 -9h-137q-18 0 -25.5 -8t-7.5 -26v-744q0 -179 62 -289q104 -182 334 -182q188 0 289.5 124.5t101.5 354.5v736q0 18 -8 26t-25 8h-137q-17 0 -27 9t-10 24q0 35 37 35h385q39 0 39 -33q0 -35 -39 -35h-105 q-17 0 -24.5 -7.5t-7.5 -26.5v-732q0 -114 -16.5 -190t-53.5 -143q-129 -222 -403 -222q-136 0 -241 57t-167 163q-70 126 -70 325v742q0 19 -7.5 26.5t-24.5 7.5h-107q-39 0 -39 33zM684 1513q0 8 10 25l125 188q17 29 41 29q17 0 30 -12t13 -29q0 -16 -14 -37l-141 -178 q-12 -18 -31 -18q-12 0 -22.5 9.5t-10.5 22.5z" />
<glyph unicode="&#xdb;" horiz-adv-x="1398" d="M49 1331q0 35 39 35h395q37 0 37 -35q0 -15 -10 -24t-27 -9h-137q-18 0 -25.5 -8t-7.5 -26v-744q0 -179 62 -289q104 -182 334 -182q188 0 289.5 124.5t101.5 354.5v736q0 18 -8 26t-25 8h-137q-17 0 -27 9t-10 24q0 35 37 35h385q39 0 39 -33q0 -35 -39 -35h-105 q-17 0 -24.5 -7.5t-7.5 -26.5v-732q0 -114 -16.5 -190t-53.5 -143q-129 -222 -403 -222q-136 0 -241 57t-167 163q-70 126 -70 325v742q0 19 -7.5 26.5t-24.5 7.5h-107q-39 0 -39 33zM463 1509q0 8 14 29l105 133q39 51 63.5 68.5t54.5 17.5q31 0 56.5 -18t64.5 -68l99 -127 q16 -19 16 -33q0 -15 -12 -26.5t-29 -11.5q-20 0 -39 22l-158 199l-163 -201q-17 -20 -35 -20q-15 0 -26 10.5t-11 25.5z" />
<glyph unicode="&#xdc;" horiz-adv-x="1398" d="M49 1331q0 35 39 35h395q37 0 37 -35q0 -15 -10 -24t-27 -9h-137q-18 0 -25.5 -8t-7.5 -26v-744q0 -179 62 -289q104 -182 334 -182q188 0 289.5 124.5t101.5 354.5v736q0 18 -8 26t-25 8h-137q-17 0 -27 9t-10 24q0 35 37 35h385q39 0 39 -33q0 -35 -39 -35h-105 q-17 0 -24.5 -7.5t-7.5 -26.5v-732q0 -114 -16.5 -190t-53.5 -143q-129 -222 -403 -222q-136 0 -241 57t-167 163q-70 126 -70 325v742q0 19 -7.5 26.5t-24.5 7.5h-107q-39 0 -39 33zM434 1599q0 31 22 52.5t54 21.5t55 -22.5t23 -53.5t-22.5 -53t-53.5 -22q-32 0 -55 22.5 t-23 54.5zM817 1597q0 32 22 54t54 22t55 -22t23 -54q0 -31 -22.5 -53t-53.5 -22q-32 0 -55 22t-23 53z" />
<glyph unicode="&#xdd;" horiz-adv-x="1214" d="M12 1331q0 35 39 35h338q39 0 39 -33q0 -35 -39 -35h-108q-33 0 -33 -28q0 -10 8 -21l348 -600l4 -2q4 0 6 2l351 600q8 11 8 23q0 26 -33 26h-109q-38 0 -38 35q0 33 38 33h330q39 0 39 -33q0 -35 -39 -35h-61q-21 0 -31 -18l-414 -700q-8 -12 -8 -27v-451 q0 -18 7.5 -26t25.5 -8h168q39 0 39 -35q0 -33 -39 -33h-488q-38 0 -38 33q0 35 38 35h168q18 0 25.5 8t7.5 26v451q0 15 -8 27l-410 700q-10 18 -32 18h-60q-39 0 -39 33zM582 1513q0 9 8 25l125 188q20 29 41 29q17 0 30 -12t13 -29q0 -14 -15 -37l-139 -178 q-13 -18 -31 -18q-14 0 -23 9.5t-9 22.5z" />
<glyph unicode="&#xde;" horiz-adv-x="1105" d="M68 33q0 35 36 35h121q17 0 25 8t8 26v1162q0 18 -8 26t-25 8h-121q-36 0 -36 33q0 35 36 35h392q39 0 39 -33q0 -35 -39 -35h-119q-17 0 -25 -8t-8 -26v-117q0 -35 33 -35h217q184 0 276 -51q83 -47 128.5 -135t45.5 -199q0 -110 -45 -198t-125 -132q-56 -31 -128 -44 t-189 -13h-180q-33 0 -33 -35v-203q0 -19 7 -26.5t26 -7.5h158q38 0 38 -35q0 -33 -38 -33h-431q-36 0 -36 33zM344 442q0 -18 8 -26t25 -8h180q177 0 260 45q65 37 101 109.5t36 164.5q0 93 -36.5 166t-102.5 111q-73 40 -235 40h-203q-17 0 -25 -8t-8 -26v-568z" />
<glyph unicode="&#xdf;" horiz-adv-x="1040" d="M39 31q0 30 37 30h96q33 0 33 35v850q0 184 55 283q43 77 123 118.5t186 41.5q166 0 255 -90t89 -257q0 -125 -71 -211q-27 -30 -57 -46.5t-87 -34.5q-10 -3 -10 -9q0 -5 35 -12q17 -5 56.5 -24.5t58.5 -32.5q56 -38 90.5 -121.5t34.5 -179.5q0 -112 -41.5 -199 t-116.5 -131q-70 -43 -203 -43q-59 0 -59 33q0 30 43 30h6q138 0 212.5 82t74.5 234q0 145 -73.5 228t-211.5 95q-45 6 -45 41q0 20 11.5 29t39.5 12q107 9 168 80.5t61 188.5q0 130 -68.5 202t-191.5 72q-79 0 -141.5 -33.5t-97.5 -95.5q-25 -46 -35 -103.5t-10 -152.5 v-844q0 -19 7 -27t25 -8h50q34 0 34 -30q0 -31 -34 -31h-291q-17 0 -27 8.5t-10 22.5z" />
<glyph unicode="&#xe0;" horiz-adv-x="1032" d="M84 260q0 80 37 147t100 101q62 32 144.5 45.5t224.5 13.5q86 0 115 -2q10 -2 24 -2q33 0 33 37v16q0 96 -16.5 147.5t-57.5 88.5q-68 59 -194 59q-129 0 -197.5 -48.5t-91.5 -157.5q-8 -41 -41 -41q-15 0 -27 12t-12 29q0 60 39.5 123t99.5 98q80 51 230 51 q186 0 274 -98q43 -44 59.5 -103.5t16.5 -167.5v-512q0 -35 33 -35h86q34 0 34 -30q0 -31 -34 -31h-160q-22 0 -30.5 8.5t-8.5 30.5v170q-57 -129 -138 -183.5t-216 -54.5q-151 0 -238.5 77.5t-87.5 211.5zM168 260q0 -103 68 -163t186 -60q229 0 305 190q12 31 22.5 104 t10.5 132q0 34 -29 37q-6 1 -85.5 3.5t-106.5 2.5q-371 0 -371 -246zM375 1331q0 17 13 29t30 12q21 0 41 -29l119 -182q10 -13 10 -24q0 -13 -10.5 -23t-24.5 -10q-16 0 -31 18l-133 174q-14 18 -14 35z" />
<glyph unicode="&#xe1;" horiz-adv-x="1032" d="M84 260q0 80 37 147t100 101q62 32 144.5 45.5t224.5 13.5q86 0 115 -2q10 -2 24 -2q33 0 33 37v16q0 96 -16.5 147.5t-57.5 88.5q-68 59 -194 59q-129 0 -197.5 -48.5t-91.5 -157.5q-8 -41 -41 -41q-15 0 -27 12t-12 29q0 60 39.5 123t99.5 98q80 51 230 51 q186 0 274 -98q43 -44 59.5 -103.5t16.5 -167.5v-512q0 -35 33 -35h86q34 0 34 -30q0 -31 -34 -31h-160q-22 0 -30.5 8.5t-8.5 30.5v170q-57 -129 -138 -183.5t-216 -54.5q-151 0 -238.5 77.5t-87.5 211.5zM168 260q0 -103 68 -163t186 -60q229 0 305 190q12 31 22.5 104 t10.5 132q0 34 -29 37q-6 1 -85.5 3.5t-106.5 2.5q-371 0 -371 -246zM477 1141q0 7 10 24l121 183q14 26 39 26q17 0 30 -12t13 -29q0 -14 -14 -35l-133 -172q-15 -18 -31 -18q-14 0 -24.5 10t-10.5 23z" />
<glyph unicode="&#xe2;" horiz-adv-x="1032" d="M84 260q0 80 37 147t100 101q62 32 144.5 45.5t224.5 13.5q86 0 115 -2q10 -2 24 -2q33 0 33 37v16q0 96 -16.5 147.5t-57.5 88.5q-68 59 -194 59q-129 0 -197.5 -48.5t-91.5 -157.5q-8 -41 -41 -41q-15 0 -27 12t-12 29q0 60 39.5 123t99.5 98q80 51 230 51 q186 0 274 -98q43 -44 59.5 -103.5t16.5 -167.5v-512q0 -35 33 -35h86q34 0 34 -30q0 -31 -34 -31h-160q-22 0 -30.5 8.5t-8.5 30.5v170q-57 -129 -138 -183.5t-216 -54.5q-151 0 -238.5 77.5t-87.5 211.5zM168 260q0 -103 68 -163t186 -60q229 0 305 190q12 31 22.5 104 t10.5 132q0 34 -29 37q-6 1 -85.5 3.5t-106.5 2.5q-371 0 -371 -246zM276 1133q0 9 15 28l104 133q38 50 63 68t56 18t55 -17.5t64 -68.5l100 -127q15 -19 15 -32q0 -15 -12 -27t-29 -12q-21 0 -37 22l-158 199l-164 -201q-17 -20 -35 -20q-15 0 -26 11t-11 26z" />
<glyph unicode="&#xe3;" horiz-adv-x="1032" d="M84 260q0 80 37 147t100 101q62 32 144.5 45.5t224.5 13.5q86 0 115 -2q10 -2 24 -2q33 0 33 37v16q0 96 -16.5 147.5t-57.5 88.5q-68 59 -194 59q-129 0 -197.5 -48.5t-91.5 -157.5q-8 -41 -41 -41q-15 0 -27 12t-12 29q0 60 39.5 123t99.5 98q80 51 230 51 q186 0 274 -98q43 -44 59.5 -103.5t16.5 -167.5v-512q0 -35 33 -35h86q34 0 34 -30q0 -31 -34 -31h-160q-22 0 -30.5 8.5t-8.5 30.5v170q-57 -129 -138 -183.5t-216 -54.5q-151 0 -238.5 77.5t-87.5 211.5zM168 260q0 -103 68 -163t186 -60q229 0 305 190q12 31 22.5 104 t10.5 132q0 34 -29 37q-6 1 -85.5 3.5t-106.5 2.5q-371 0 -371 -246zM201 1159q4 76 53 128t115 52q65 0 149 -67q83 -66 123 -66q37 0 61.5 30t32.5 83q6 29 31 29q14 0 22.5 -10t8.5 -27q0 -70 -47.5 -122t-112.5 -52q-35 0 -64.5 13.5t-80.5 53.5q-81 62 -130 62 q-77 0 -98 -105q-6 -37 -35 -37q-13 0 -21 10t-7 25z" />
<glyph unicode="&#xe4;" horiz-adv-x="1032" d="M84 260q0 80 37 147t100 101q62 32 144.5 45.5t224.5 13.5q86 0 115 -2q10 -2 24 -2q33 0 33 37v16q0 96 -16.5 147.5t-57.5 88.5q-68 59 -194 59q-129 0 -197.5 -48.5t-91.5 -157.5q-8 -41 -41 -41q-15 0 -27 12t-12 29q0 60 39.5 123t99.5 98q80 51 230 51 q186 0 274 -98q43 -44 59.5 -103.5t16.5 -167.5v-512q0 -35 33 -35h86q34 0 34 -30q0 -31 -34 -31h-160q-22 0 -30.5 8.5t-8.5 30.5v170q-57 -129 -138 -183.5t-216 -54.5q-151 0 -238.5 77.5t-87.5 211.5zM168 260q0 -103 68 -163t186 -60q229 0 305 190q12 31 22.5 104 t10.5 132q0 34 -29 37q-6 1 -85.5 3.5t-106.5 2.5q-371 0 -371 -246zM236 1243q0 29 20 49.5t51 20.5t52.5 -20.5t21.5 -51.5q0 -28 -21.5 -49t-50.5 -21q-31 0 -52 21.5t-21 50.5zM612 1243q0 29 21.5 49.5t50.5 20.5q31 0 52.5 -20.5t21.5 -51.5q0 -28 -21.5 -49 t-50.5 -21q-31 0 -52.5 21.5t-21.5 50.5z" />
<glyph unicode="&#xe5;" horiz-adv-x="1032" d="M84 260q0 80 37 147t100 101q62 32 144.5 45.5t224.5 13.5q86 0 115 -2q10 -2 24 -2q33 0 33 37v16q0 96 -16.5 147.5t-57.5 88.5q-68 59 -194 59q-129 0 -197.5 -48.5t-91.5 -157.5q-8 -41 -41 -41q-15 0 -27 12t-12 29q0 60 39.5 123t99.5 98q80 51 230 51 q186 0 274 -98q43 -44 59.5 -103.5t16.5 -167.5v-512q0 -35 33 -35h86q34 0 34 -30q0 -31 -34 -31h-160q-22 0 -30.5 8.5t-8.5 30.5v170q-57 -129 -138 -183.5t-216 -54.5q-151 0 -238.5 77.5t-87.5 211.5zM168 260q0 -103 68 -163t186 -60q229 0 305 190q12 31 22.5 104 t10.5 132q0 34 -29 37q-6 1 -85.5 3.5t-106.5 2.5q-371 0 -371 -246zM319 1251q0 78 55.5 133.5t133.5 55.5q79 0 134.5 -55.5t55.5 -135.5q0 -78 -56 -133t-136 -55q-75 0 -131 56t-56 134zM373 1251q0 -57 39.5 -97t95.5 -40q57 0 97 39.5t40 97.5q0 55 -39.5 95t-95.5 40 q-57 0 -97 -39.5t-40 -95.5z" />
<glyph unicode="&#xe6;" horiz-adv-x="1480" d="M84 258q0 69 31 127.5t84 89.5q49 29 116.5 41t178.5 12h170q21 0 26.5 13.5t5.5 60.5q0 86 -6.5 131t-25.5 80q-25 43 -81 68.5t-128 25.5q-210 0 -248 -194q-9 -51 -41 -51q-17 0 -28 12t-11 31q0 62 41 129q38 66 114 101.5t179 35.5q252 0 293 -207q35 100 114 153.5 t189 53.5q153 0 243 -103q57 -63 84.5 -148t18.5 -171l-2 -12v-31q0 -22 -8.5 -30.5t-28.5 -8.5h-565q-20 0 -27.5 -9t-7.5 -32q0 -66 15.5 -135.5t41.5 -118.5q32 -57 92.5 -90t133.5 -33q131 0 213 98q26 29 38 52.5t25 74.5q9 39 35 39q13 0 23 -10t10 -24 q0 -47 -30 -105t-77 -102q-91 -88 -240 -88q-129 0 -216 73t-113 203q-40 -136 -125.5 -207t-210.5 -71q-131 0 -213 76.5t-82 199.5zM166 252q0 -91 63 -149t162 -58q75 0 136.5 39t101.5 111q28 49 44.5 112t16.5 117q0 28 -7.5 35.5t-33.5 7.5h-182q-82 0 -130.5 -10.5 t-88.5 -36.5q-38 -25 -60 -69.5t-22 -98.5zM768 567q0 -22 7 -30.5t26 -8.5h491q19 0 27 10.5t8 36.5q0 75 -17 125t-67 121q-61 86 -192 86q-72 0 -132.5 -35t-95.5 -98q-25 -44 -40 -101.5t-15 -105.5z" />
<glyph unicode="&#xe7;" horiz-adv-x="983" d="M78 469q0 232 113 370t303 138q112 0 194 -52.5t117 -146.5v127q0 43 35 43q32 0 32 -43v-272q0 -43 -32 -43q-17 0 -25.5 11.5t-11.5 39.5q-13 126 -92.5 199t-202.5 73q-188 0 -281 -163q-65 -115 -65 -273q0 -109 34.5 -207t94.5 -155q81 -78 215 -78q115 0 197 63 t94 160q4 36 13.5 51t27.5 15q15 0 25.5 -11t10.5 -28q0 -54 -41 -129.5t-90 -112.5q-81 -66 -223 -72l-51 -79q6 -15 8 -15l62 2h2q11 0 37 -13.5t40 -27.5q39 -34 39 -96q0 -66 -51 -112t-125 -46q-73 0 -123.5 16.5t-50.5 39.5q0 10 7 18t16 8q12 0 28 -8q40 -18 88 -18 q58 0 95 27.5t37 70.5q0 37 -29.5 61.5t-73.5 24.5q-32 0 -67 -14l-15 -5q-6 0 -11 6.5t-5 14.5q0 7 6 16l84 129q-183 15 -286 146.5t-103 349.5z" />
<glyph unicode="&#xe8;" d="M78 471q0 236 114 371t314 135q243 0 352 -189q31 -54 50.5 -133t19.5 -149q0 -24 -8 -33.5t-29 -9.5h-698q-33 0 -33 -39q0 -41 19.5 -117.5t39.5 -107.5q44 -78 124 -121t183 -43q250 0 312 231q8 39 34 39q15 0 25 -11t10 -26q0 -37 -28.5 -92.5t-71.5 -101.5 q-95 -103 -291 -103q-206 0 -322 132.5t-116 367.5zM164 555q0 -31 29 -31h622q31 0 31 33q0 46 -15 101t-40 98q-44 76 -117.5 116.5t-167.5 40.5q-93 0 -167 -40.5t-114 -112.5q-27 -50 -44 -107.5t-17 -97.5zM385 1331q0 15 13 28t30 13q22 0 39 -29l121 -182 q10 -13 10 -24q0 -13 -10.5 -23t-24.5 -10q-16 0 -31 18l-133 174q-14 18 -14 35z" />
<glyph unicode="&#xe9;" d="M78 471q0 236 114 371t314 135q243 0 352 -189q31 -54 50.5 -133t19.5 -149q0 -24 -8 -33.5t-29 -9.5h-698q-33 0 -33 -39q0 -41 19.5 -117.5t39.5 -107.5q44 -78 124 -121t183 -43q250 0 312 231q8 39 34 39q15 0 25 -11t10 -26q0 -37 -28.5 -92.5t-71.5 -101.5 q-95 -103 -291 -103q-206 0 -322 132.5t-116 367.5zM164 555q0 -31 29 -31h622q31 0 31 33q0 46 -15 101t-40 98q-44 76 -117.5 116.5t-167.5 40.5q-93 0 -167 -40.5t-114 -112.5q-27 -50 -44 -107.5t-17 -97.5zM492 1139q0 8 8 24l121 183q20 28 41 28q17 0 30 -12t13 -29 q0 -13 -17 -37l-133 -172q-15 -18 -31 -18q-12 0 -22 10t-10 23z" />
<glyph unicode="&#xea;" d="M78 471q0 236 114 371t314 135q243 0 352 -189q31 -54 50.5 -133t19.5 -149q0 -24 -8 -33.5t-29 -9.5h-698q-33 0 -33 -39q0 -41 19.5 -117.5t39.5 -107.5q44 -78 124 -121t183 -43q250 0 312 231q8 39 34 39q15 0 25 -11t10 -26q0 -37 -28.5 -92.5t-71.5 -101.5 q-95 -103 -291 -103q-206 0 -322 132.5t-116 367.5zM164 555q0 -31 29 -31h622q31 0 31 33q0 46 -15 101t-40 98q-44 76 -117.5 116.5t-167.5 40.5q-93 0 -167 -40.5t-114 -112.5q-27 -50 -44 -107.5t-17 -97.5zM281 1133q0 13 14 30l104 133q39 50 64 68t55 18 q31 0 55.5 -17.5t65.5 -68.5l98 -127q15 -19 15 -34t-12 -27t-29 -12q-18 0 -37 24l-158 199l-164 -201q-19 -22 -35 -22q-15 0 -25.5 11t-10.5 26z" />
<glyph unicode="&#xeb;" d="M78 471q0 236 114 371t314 135q243 0 352 -189q31 -54 50.5 -133t19.5 -149q0 -24 -8 -33.5t-29 -9.5h-698q-33 0 -33 -39q0 -41 19.5 -117.5t39.5 -107.5q44 -78 124 -121t183 -43q250 0 312 231q8 39 34 39q15 0 25 -11t10 -26q0 -37 -28.5 -92.5t-71.5 -101.5 q-95 -103 -291 -103q-206 0 -322 132.5t-116 367.5zM164 555q0 -31 29 -31h622q31 0 31 33q0 46 -15 101t-40 98q-44 76 -117.5 116.5t-167.5 40.5q-93 0 -167 -40.5t-114 -112.5q-27 -50 -44 -107.5t-17 -97.5zM262 1243q0 29 21.5 49.5t50.5 20.5q31 0 52.5 -20.5 t21.5 -51.5q0 -28 -21.5 -49t-50.5 -21q-31 0 -52.5 21.5t-21.5 50.5zM639 1243q0 29 21.5 49.5t50.5 20.5q31 0 52 -20.5t21 -51.5q0 -28 -21 -49t-50 -21q-31 0 -52.5 21.5t-21.5 50.5z" />
<glyph unicode="&#xec;" horiz-adv-x="479" d="M41 31q0 30 35 30h96q33 0 33 35v756q0 35 -33 35h-96q-35 0 -35 31q0 30 35 30h170q22 0 30.5 -8.5t8.5 -30.5v-813q0 -35 32 -35h86q35 0 35 -30q0 -31 -35 -31h-327q-35 0 -35 31zM86 1331q0 15 13 28t30 13q21 0 41 -29l119 -182q10 -13 10 -24q0 -13 -10.5 -23 t-24.5 -10q-16 0 -31 18l-133 174q-14 21 -14 35z" />
<glyph unicode="&#xed;" horiz-adv-x="479" d="M41 31q0 30 35 30h96q33 0 33 35v756q0 35 -33 35h-96q-35 0 -35 31q0 30 35 30h170q22 0 30.5 -8.5t8.5 -30.5v-813q0 -35 32 -35h86q35 0 35 -30q0 -31 -35 -31h-327q-35 0 -35 31zM203 1135q0 12 8 24l121 184q18 27 41 27q17 0 30 -12t13 -29q0 -15 -17 -35 l-133 -174q-13 -18 -30 -18q-12 0 -22.5 10t-10.5 23z" />
<glyph unicode="&#xee;" horiz-adv-x="501" d="M-20 1133q0 13 14 30l102 133q39 50 64.5 68t56.5 18q30 0 55 -18t64 -68l98 -127q17 -20 17 -34q0 -15 -12 -27t-29 -12q-18 0 -37 24l-158 199l-164 -201q-19 -22 -35 -22q-15 0 -25.5 11t-10.5 26zM10 31q0 30 35 30h98q33 0 33 35v756q0 35 -33 35h-98q-35 0 -35 31 q0 30 35 30h172q22 0 30.5 -8.5t8.5 -30.5v-813q0 -35 33 -35h88q35 0 35 -30q0 -31 -35 -31h-332q-35 0 -35 31z" />
<glyph unicode="&#xef;" horiz-adv-x="483" d="M35 1243q0 29 20.5 49.5t50.5 20.5q31 0 52.5 -20.5t21.5 -51.5q0 -28 -21 -49t-50 -21q-31 0 -52.5 21.5t-21.5 50.5zM43 31q0 30 35 30h98q33 0 33 35v756q0 35 -33 35h-98q-35 0 -35 31q0 30 35 30h172q22 0 30.5 -8.5t8.5 -30.5v-813q0 -35 33 -35h86q36 0 36 -30 q0 -31 -36 -31h-330q-35 0 -35 31zM295 1243q0 29 21.5 49.5t50.5 20.5q31 0 52 -20.5t21 -51.5q0 -28 -21 -49t-50 -21q-31 0 -52.5 21.5t-21.5 50.5z" />
<glyph unicode="&#xf0;" horiz-adv-x="1034" d="M78 485q0 221 121 356.5t319 135.5q203 0 316 -152q-41 165 -128 271t-235 172l-209 -144q-12 -8 -22 -8t-18.5 9.5t-8.5 21.5q0 16 18 29l170 116q-38 15 -121.5 34.5t-109.5 19.5q-43 3 -43 32q0 12 8.5 20.5t20.5 8.5q4 0 24 -4l27 -2q159 -22 258 -60l192 132 q12 8 21 8q11 0 20 -9.5t9 -21.5q0 -16 -19 -27l-158 -108q148 -74 230 -162q93 -98 144.5 -269t51.5 -382q0 -201 -71 -326q-57 -99 -151 -152t-212 -53q-203 0 -323.5 139.5t-120.5 374.5zM164 485q0 -209 93.5 -329.5t256.5 -120.5q165 0 260.5 116t95.5 316 q0 206 -92 325t-252 119q-166 0 -264 -115.5t-98 -310.5z" />
<glyph unicode="&#xf1;" horiz-adv-x="1114" d="M37 31q0 30 35 30h102q33 0 33 35v756q0 35 -33 35h-102q-15 0 -25 9t-10 22q0 30 35 30h176q22 0 30.5 -8.5t8.5 -30.5v-143q82 211 319 211q155 0 237.5 -82.5t82.5 -237.5v-561q0 -35 32 -35h99q37 0 37 -30q0 -31 -37 -31h-346q-35 0 -35 31q0 30 35 30h102 q33 0 33 35v545q0 130 -67.5 201t-192.5 71q-140 0 -219.5 -91.5t-79.5 -252.5v-473q0 -35 32 -35h101q37 0 37 -30q0 -31 -37 -31h-348q-15 0 -25 9t-10 22zM264 1159q4 76 53 128t115 52t150 -67q83 -66 123 -66q37 0 61.5 30t32.5 83q6 29 30 29q14 0 22.5 -10t8.5 -27 q0 -70 -47.5 -122t-112.5 -52q-35 0 -64.5 13.5t-80.5 53.5q-81 62 -129 62q-77 0 -98 -105q-6 -37 -35 -37q-14 0 -22 10t-7 25z" />
<glyph unicode="&#xf2;" horiz-adv-x="1032" d="M78 494q0 215 123 349t321 134q201 0 316.5 -135.5t115.5 -370.5q0 -226 -119 -363t-315 -137q-204 0 -323 141t-119 382zM162 483q0 -114 35.5 -214t95.5 -154q89 -80 221 -80q166 0 261 116.5t95 317.5q0 206 -92 325t-252 119q-167 0 -265.5 -116.5t-98.5 -313.5z M395 1331q0 15 13 28t30 13q21 0 41 -29l119 -182q10 -13 10 -24q0 -13 -10.5 -23t-22.5 -10q-15 0 -30 18l-135 174q-15 22 -15 35z" />
<glyph unicode="&#xf3;" horiz-adv-x="1032" d="M78 494q0 215 123 349t321 134q201 0 316.5 -135.5t115.5 -370.5q0 -226 -119 -363t-315 -137q-204 0 -323 141t-119 382zM162 483q0 -114 35.5 -214t95.5 -154q89 -80 221 -80q166 0 261 116.5t95 317.5q0 206 -92 325t-252 119q-167 0 -265.5 -116.5t-98.5 -313.5z M477 1137q0 7 10 24l121 182q17 29 39 29q17 0 30 -12t13 -29t-14 -35l-133 -174q-15 -18 -31 -18q-14 0 -24.5 10t-10.5 23z" />
<glyph unicode="&#xf4;" horiz-adv-x="1032" d="M78 494q0 215 123 349t321 134q201 0 316.5 -135.5t115.5 -370.5q0 -226 -119 -363t-315 -137q-204 0 -323 141t-119 382zM162 483q0 -114 35.5 -214t95.5 -154q89 -80 221 -80q166 0 261 116.5t95 317.5q0 206 -92 325t-252 119q-167 0 -265.5 -116.5t-98.5 -313.5z M297 1133q0 13 14 30l105 133q40 51 64 68.5t55 17.5t54.5 -17.5t63.5 -68.5l101 -127q14 -18 14 -34q0 -15 -12 -27t-29 -12q-18 0 -37 24l-158 199l-163 -201q-19 -22 -35 -22q-15 0 -26 11t-11 26z" />
<glyph unicode="&#xf5;" horiz-adv-x="1032" d="M78 494q0 215 123 349t321 134q201 0 316.5 -135.5t115.5 -370.5q0 -226 -119 -363t-315 -137q-204 0 -323 141t-119 382zM162 483q0 -114 35.5 -214t95.5 -154q89 -80 221 -80q166 0 261 116.5t95 317.5q0 206 -92 325t-252 119q-167 0 -265.5 -116.5t-98.5 -313.5z M225 1159q4 76 53 128t115 52q68 0 152 -67q83 -66 123 -66q35 0 61 30.5t33 82.5q6 29 31 29q30 0 30 -37q0 -71 -47.5 -122.5t-113.5 -51.5q-34 0 -65 14t-81 53q-79 62 -129 62q-77 0 -98 -105q-6 -37 -35 -37q-14 0 -22 10t-7 25z" />
<glyph unicode="&#xf6;" horiz-adv-x="1032" d="M78 494q0 215 123 349t321 134q201 0 316.5 -135.5t115.5 -370.5q0 -226 -119 -363t-315 -137q-204 0 -323 141t-119 382zM162 483q0 -114 35.5 -214t95.5 -154q89 -80 221 -80q166 0 261 116.5t95 317.5q0 206 -92 325t-252 119q-167 0 -265.5 -116.5t-98.5 -313.5z M256 1243q0 29 21.5 49.5t50.5 20.5q31 0 52 -20.5t21 -51.5q0 -28 -21 -49t-50 -21q-31 0 -52.5 21.5t-21.5 50.5zM633 1243q0 29 21.5 49.5t50.5 20.5q31 0 52 -20.5t21 -51.5q0 -28 -21 -49t-50 -21q-31 0 -52.5 21.5t-21.5 50.5z" />
<glyph unicode="&#xf7;" d="M94 702q0 31 37 31h746q34 0 34 -31q0 -30 -34 -30h-746q-37 0 -37 30zM428 348q0 32 22 54t54 22q34 0 56 -22t22 -56q0 -31 -22.5 -53.5t-53.5 -22.5q-32 0 -55 23t-23 55zM428 1061q0 32 22 54t54 22q33 0 55.5 -22.5t22.5 -55.5q0 -31 -22.5 -53.5t-53.5 -22.5 q-32 0 -55 23t-23 55z" />
<glyph unicode="&#xf8;" horiz-adv-x="1056" d="M80 479q0 226 123 363t325 137q161 0 287 -111l96 115q11 14 23 14q11 0 19 -8t8 -20q0 -8 -11 -23l-98 -117q106 -135 106 -344q0 -235 -118.5 -374.5t-317.5 -139.5q-172 0 -295 111l-92 -111q-11 -14 -24 -14q-11 0 -19 8.5t-8 20.5q0 9 10 22l94 115 q-108 136 -108 356zM162 477q0 -177 78 -295l526 631q-38 46 -103.5 73t-140.5 27q-164 0 -262 -119t-98 -317zM274 137q102 -102 242 -102q169 0 263.5 119t94.5 333q0 171 -71 281z" />
<glyph unicode="&#xf9;" horiz-adv-x="1099" d="M16 918q0 30 37 30h176q22 0 30.5 -8.5t8.5 -30.5v-565q0 -160 62.5 -233.5t197.5 -73.5q151 0 224 97.5t73 297.5v420q0 35 -32 35h-103q-35 0 -35 31q0 30 35 30h176q22 0 30.5 -8.5t8.5 -30.5v-813q0 -35 33 -35h104q37 0 37 -30q0 -31 -37 -31h-178q-22 0 -30.5 8.5 t-8.5 30.5v145q-63 -213 -309 -213q-208 0 -285 142q-43 76 -43 229v510q0 35 -32 35h-103q-17 0 -27 8.5t-10 22.5zM418 1331q0 17 13 29t30 12q21 0 41 -29l121 -182q8 -16 8 -24q0 -13 -10.5 -23t-22.5 -10q-16 0 -31 18l-135 174q-14 21 -14 35z" />
<glyph unicode="&#xfa;" horiz-adv-x="1099" d="M16 918q0 30 37 30h176q22 0 30.5 -8.5t8.5 -30.5v-565q0 -160 62.5 -233.5t197.5 -73.5q151 0 224 97.5t73 297.5v420q0 35 -32 35h-103q-35 0 -35 31q0 30 35 30h176q22 0 30.5 -8.5t8.5 -30.5v-813q0 -35 33 -35h104q37 0 37 -30q0 -31 -37 -31h-178q-22 0 -30.5 8.5 t-8.5 30.5v145q-63 -213 -309 -213q-208 0 -285 142q-43 76 -43 229v510q0 35 -32 35h-103q-17 0 -27 8.5t-10 22.5zM489 1135q0 6 9 24l120 184q21 27 41 27q17 0 30 -12t13 -29q0 -14 -14 -35l-135 -174q-15 -18 -31 -18q-12 0 -22.5 10t-10.5 23z" />
<glyph unicode="&#xfb;" horiz-adv-x="1099" d="M16 918q0 30 37 30h176q22 0 30.5 -8.5t8.5 -30.5v-565q0 -160 62.5 -233.5t197.5 -73.5q151 0 224 97.5t73 297.5v420q0 35 -32 35h-103q-35 0 -35 31q0 30 35 30h176q22 0 30.5 -8.5t8.5 -30.5v-813q0 -35 33 -35h104q37 0 37 -30q0 -31 -37 -31h-178q-22 0 -30.5 8.5 t-8.5 30.5v145q-63 -213 -309 -213q-208 0 -285 142q-43 76 -43 229v510q0 35 -32 35h-103q-17 0 -27 8.5t-10 22.5zM328 1133q0 13 14 30l104 133q39 50 64 68t55 18q31 0 55.5 -17.5t65.5 -68.5l98 -127q15 -19 15 -34t-12 -27t-29 -12q-18 0 -37 24l-158 199l-164 -201 q-19 -22 -34 -22t-26 11t-11 26z" />
<glyph unicode="&#xfc;" horiz-adv-x="1099" d="M16 918q0 30 37 30h176q22 0 30.5 -8.5t8.5 -30.5v-565q0 -160 62.5 -233.5t197.5 -73.5q151 0 224 97.5t73 297.5v420q0 35 -32 35h-103q-35 0 -35 31q0 30 35 30h176q22 0 30.5 -8.5t8.5 -30.5v-813q0 -35 33 -35h104q37 0 37 -30q0 -31 -37 -31h-178q-22 0 -30.5 8.5 t-8.5 30.5v145q-63 -213 -309 -213q-208 0 -285 142q-43 76 -43 229v510q0 35 -32 35h-103q-17 0 -27 8.5t-10 22.5zM289 1243q0 29 20.5 49.5t50.5 20.5q31 0 52.5 -20.5t21.5 -51.5q0 -28 -21.5 -49t-50.5 -21q-30 0 -51.5 21.5t-21.5 50.5zM666 1243q0 29 21 49.5 t50 20.5q31 0 52.5 -20.5t21.5 -51.5q0 -28 -21.5 -49t-50.5 -21q-31 0 -52 21.5t-21 50.5z" />
<glyph unicode="&#xfd;" horiz-adv-x="1048" d="M6 918q0 13 10 21.5t25 8.5h293q35 0 35 -30q0 -31 -35 -31h-86q-15 0 -24 -7.5t-9 -19.5q0 -4 4 -20l287 -682q12 -24 29 -76q9 21 14 35q2 5 4.5 11.5t5.5 13.5t4 10l281 690q4 12 4 18q0 12 -9.5 19.5t-23.5 7.5h-88q-17 0 -27 8.5t-10 22.5q0 30 37 30h279 q34 0 34 -30q0 -31 -34 -31h-43q-15 0 -22 -4.5t-13 -18.5l-416 -1011q-54 -131 -105 -176.5t-143 -45.5q-53 0 -85 12.5t-32 34.5q0 13 9 23t20 10q6 0 41 -8q21 -6 45 -6q60 0 100 36t74 120l51 127q1 3 2 7t2 6t1 3q0 2 -1 4.5t-2 6.5t-2 7l-360 850q-5 14 -11.5 18.5 t-21.5 4.5h-53q-35 0 -35 31zM508 1139q0 11 10 24l121 183q17 28 39 28q17 0 30 -13t13 -28q0 -16 -14 -37l-134 -172q-15 -18 -30 -18q-14 0 -24.5 10t-10.5 23z" />
<glyph unicode="&#xfe;" horiz-adv-x="1112" d="M23 -315q0 30 34 30h101q32 0 32 35v1520q0 35 -32 35h-101q-34 0 -34 30q0 31 34 31h174q22 0 30.5 -8.5t8.5 -30.5v-596q38 121 124.5 183.5t215.5 62.5q198 0 311 -133.5t113 -366.5q0 -232 -113 -369t-305 -137q-126 0 -214 65t-132 191v-477q0 -19 7.5 -27t25.5 -8 h100q35 0 35 -30q0 -31 -35 -31h-346q-34 0 -34 31zM270 481q0 -212 87 -329t245 -117q69 0 133 27.5t109 78.5q47 51 76.5 144.5t29.5 193.5q0 201 -93.5 317.5t-256.5 116.5q-161 0 -245.5 -110.5t-84.5 -321.5z" />
<glyph unicode="&#xff;" horiz-adv-x="1048" d="M6 918q0 13 10 21.5t25 8.5h293q35 0 35 -30q0 -31 -35 -31h-86q-15 0 -24 -7.5t-9 -19.5q0 -4 4 -20l287 -682q12 -24 29 -76q9 21 14 35q2 5 4.5 11.5t5.5 13.5t4 10l281 690q4 12 4 18q0 12 -9.5 19.5t-23.5 7.5h-88q-17 0 -27 8.5t-10 22.5q0 30 37 30h279 q34 0 34 -30q0 -31 -34 -31h-43q-15 0 -22 -4.5t-13 -18.5l-416 -1011q-54 -131 -105 -176.5t-143 -45.5q-53 0 -85 12.5t-32 34.5q0 13 9 23t20 10q6 0 41 -8q21 -6 45 -6q60 0 100 36t74 120l51 127q1 3 2 7t2 6t1 3q0 2 -1 4.5t-2 6.5t-2 7l-360 850q-5 14 -11.5 18.5 t-21.5 4.5h-53q-35 0 -35 31zM266 1243q0 29 20.5 49.5t51.5 20.5t52.5 -20.5t21.5 -51.5q0 -28 -21.5 -49t-50.5 -21q-31 0 -52.5 21.5t-21.5 50.5zM643 1243q0 29 21.5 49.5t50.5 20.5q31 0 52 -20.5t21 -51.5q0 -28 -21 -49t-50 -21q-31 0 -52.5 21.5t-21.5 50.5z" />
<glyph unicode="&#x152;" horiz-adv-x="1851" d="M90 692q0 321 158.5 505.5t435.5 184.5q109 0 209 -10q89 -6 135 -6h649q22 0 30.5 -9t8.5 -32v-317q0 -50 -39 -50t-39 50v256q0 19 -7 26.5t-25 7.5h-529q-17 0 -25 -8t-8 -26v-510q0 -35 33 -35h230q32 0 32 35v159q0 45 37 45t37 -45v-448q0 -45 -37 -45t-37 45v153 q0 35 -32 35h-230q-33 0 -33 -35v-516q0 -18 8 -26t25 -8h541q18 0 25.5 8t7.5 26v271q0 49 39 49t39 -49v-334q0 -21 -9 -30t-30 -9h-676q-30 0 -187 -10q-73 -6 -133 -6q-284 0 -444 187.5t-160 520.5zM180 686q0 -243 92 -407q68 -117 182 -172.5t291 -55.5q51 0 74 2 q61 6 72 6q41 0 54 8t13 31v1170q0 20 -8.5 26.5t-36.5 8.5q-21 0 -82 6q-64 6 -118 6q-258 0 -395.5 -162.5t-137.5 -466.5z" />
<glyph unicode="&#x153;" horiz-adv-x="1601" d="M78 473q0 223 114 360.5t297 137.5q131 0 219 -70t128 -205q31 132 118 203.5t217 71.5q98 0 175 -41t120 -115q31 -56 44.5 -124t13.5 -173v-18q0 -39 -37 -39h-584q-20 0 -27.5 -9.5t-7.5 -35.5q0 -167 87 -271t227 -104q99 0 165.5 58t86.5 163q6 27 15 38t26 11 q15 0 25.5 -12t10.5 -27q0 -56 -47 -139q-41 -72 -118 -114t-170 -42q-130 0 -223.5 77t-121.5 206q-99 -280 -358 -280q-178 0 -286.5 135t-108.5 358zM162 475q0 -192 87 -312t226 -120q78 0 148.5 43t111.5 115q62 109 62 276q0 207 -80.5 318.5t-229.5 111.5 q-145 0 -235 -120t-90 -312zM872 559q0 -20 8 -28.5t27 -8.5h506q18 0 25.5 9t7.5 30q0 166 -70 256t-200 90q-78 0 -143.5 -36.5t-102.5 -100.5q-25 -44 -41.5 -104.5t-16.5 -106.5z" />
<glyph unicode="&#x178;" horiz-adv-x="1214" d="M12 1331q0 35 39 35h338q39 0 39 -33q0 -35 -39 -35h-108q-33 0 -33 -28q0 -10 8 -21l348 -600h10l351 600q8 11 8 23q0 26 -33 26h-109q-38 0 -38 35q0 33 38 33h330q39 0 39 -33q0 -35 -39 -35h-61q-21 0 -31 -18l-414 -700q-8 -12 -8 -27v-451q0 -18 7.5 -26t25.5 -8 h168q39 0 39 -35q0 -33 -39 -33h-488q-38 0 -38 33q0 35 38 35h168q18 0 25.5 8t7.5 26v451q0 15 -8 27l-410 700q-10 18 -32 18h-60q-39 0 -39 33zM342 1597q0 32 22 54t54 22t55 -22t23 -54q0 -31 -22.5 -53t-53.5 -22q-32 0 -55 22t-23 53zM725 1599q0 31 22.5 52.5 t53.5 21.5q32 0 55 -22t23 -54q0 -31 -22.5 -53t-53.5 -22q-32 0 -55 22.5t-23 54.5z" />
<glyph unicode="&#x2c6;" horiz-adv-x="997" d="M164 1130q0 12 14 29l103 133q40 51 64.5 68.5t55.5 17.5q30 0 55 -18t64 -68l98 -127q17 -20 17 -32q0 -15 -12 -27t-29 -12q-20 0 -37 22l-158 199l-163 -201q-17 -20 -35 -20q-15 0 -26 10.5t-11 25.5z" />
<glyph unicode="&#x2dc;" horiz-adv-x="1003" d="M203 1159q4 76 53 128t115 52q65 0 149 -67q83 -66 123 -66q37 0 61.5 30t32.5 83q6 29 31 29q13 0 22 -10t9 -25q0 -72 -47.5 -124t-112.5 -52q-35 0 -64.5 13.5t-80.5 53.5q-79 62 -129 62q-78 0 -99 -105q-6 -37 -35 -37q-13 0 -21 10t-7 25z" />
<glyph unicode="&#x2000;" horiz-adv-x="910" />
<glyph unicode="&#x2001;" horiz-adv-x="1821" />
<glyph unicode="&#x2002;" horiz-adv-x="910" />
<glyph unicode="&#x2003;" horiz-adv-x="1821" />
<glyph unicode="&#x2004;" horiz-adv-x="607" />
<glyph unicode="&#x2005;" horiz-adv-x="455" />
<glyph unicode="&#x2006;" horiz-adv-x="303" />
<glyph unicode="&#x2007;" horiz-adv-x="303" />
<glyph unicode="&#x2008;" horiz-adv-x="227" />
<glyph unicode="&#x2009;" horiz-adv-x="364" />
<glyph unicode="&#x200a;" horiz-adv-x="101" />
<glyph unicode="&#x2010;" horiz-adv-x="428" d="M0 500q0 17 11 27t30 10h346q18 0 29.5 -10t11.5 -25q0 -37 -41 -37h-346q-41 0 -41 35z" />
<glyph unicode="&#x2011;" horiz-adv-x="428" d="M0 500q0 17 11 27t30 10h346q18 0 29.5 -10t11.5 -25q0 -37 -41 -37h-346q-41 0 -41 35z" />
<glyph unicode="&#x2012;" horiz-adv-x="428" d="M0 500q0 17 11 27t30 10h346q18 0 29.5 -10t11.5 -25q0 -37 -41 -37h-346q-41 0 -41 35z" />
<glyph unicode="&#x2013;" d="M88 500q0 17 11 27t30 10h745q44 0 44 -35q0 -37 -44 -37h-745q-41 0 -41 35z" />
<glyph unicode="&#x2014;" horiz-adv-x="1284" d="M0 500q0 37 41 37h1200q43 0 43 -35q0 -37 -43 -37h-1200q-41 0 -41 35z" />
<glyph unicode="&#x2018;" horiz-adv-x="438" d="M127 1104q0 91 53 192q23 44 45.5 72.5t34.5 28.5q9 0 16 -7.5t7 -15.5q0 -10 -21 -41q-72 -109 -72 -178q0 -27 25 -27h10q6 2 13 2q25 0 42 -21.5t17 -53.5q0 -38 -23 -63t-57 -25q-41 0 -65.5 37t-24.5 100z" />
<glyph unicode="&#x2019;" horiz-adv-x="598" d="M207 1294q0 36 22.5 61t55.5 25q40 0 64 -37t24 -98q0 -92 -51 -186q-51 -98 -80 -98q-7 0 -14 7t-7 15q0 14 21 41q69 98 69 170q0 15 -5.5 21t-18.5 6h-11l-10 -2q-25 0 -42 21.5t-17 53.5z" />
<glyph unicode="&#x201a;" horiz-adv-x="593" d="M205 61q0 38 22 63.5t56 25.5q38 0 61 -37t23 -99q0 -91 -52 -190q-51 -94 -75 -94q-7 0 -14 7t-7 15q0 12 19 41q67 93 67 172q0 25 -24 25h-9l-10 -2q-25 0 -41 21t-16 52z" />
<glyph unicode="&#x201c;" horiz-adv-x="671" d="M139 1104q0 89 54 192q24 45 45.5 73t33.5 28q9 0 16 -7.5t7 -15.5q0 -10 -21 -41q-71 -107 -71 -178q0 -15 5.5 -21t18.5 -6h11q6 2 12 2q25 0 42 -21.5t17 -53.5q0 -38 -23 -63t-57 -25q-41 0 -65.5 37t-24.5 100zM369 1104q0 94 53 192q23 44 45.5 72.5t34.5 28.5 q9 0 15.5 -8t6.5 -17t-20 -39q-74 -104 -74 -178q0 -27 27 -27h8l12 2q26 0 44 -21.5t18 -53.5q0 -38 -23 -63t-57 -25q-41 0 -65.5 37t-24.5 100z" />
<glyph unicode="&#x201d;" horiz-adv-x="671" d="M139 1298q0 38 23 63t57 25q41 0 65.5 -37t24.5 -100q0 -92 -53 -192q-53 -101 -80 -101q-9 0 -15.5 7.5t-6.5 15.5q0 11 20 41q74 104 74 178q0 15 -6 21t-21 6h-8l-12 -2q-26 0 -44 21.5t-18 53.5zM369 1300q0 37 23 61.5t57 24.5q41 0 65.5 -37t24.5 -100 q0 -90 -54 -192q-53 -101 -79 -101q-9 0 -16 8t-7 17t20 39q74 104 74 178q0 15 -5.5 21t-20.5 6h-9l-12 -2q-26 0 -43.5 21.5t-17.5 55.5z" />
<glyph unicode="&#x201e;" horiz-adv-x="667" d="M139 76q0 37 23 62.5t55 25.5q40 0 64 -37t24 -100q0 -95 -53 -195q-23 -44 -44.5 -70t-33.5 -26q-8 0 -14 7.5t-6 16.5q0 13 20 39q32 44 51 92t19 84q0 27 -25 27h-10l-10 -2q-26 0 -43 22t-17 54zM369 76q0 37 22 62.5t55 25.5q40 0 64.5 -37t24.5 -100 q0 -93 -54 -195q-52 -96 -78 -96q-7 0 -13.5 7t-6.5 15q0 15 20 41q70 99 70 176q0 15 -5.5 21t-18.5 6h-11l-10 -2q-26 0 -42.5 21.5t-16.5 54.5z" />
<glyph unicode="&#x2022;" horiz-adv-x="1296" d="M381 698q0 119 79 201t193 82q107 0 184.5 -84t77.5 -201q0 -120 -77.5 -203t-188.5 -83q-113 0 -190.5 83.5t-77.5 204.5z" />
<glyph unicode="&#x2026;" horiz-adv-x="1212" d="M125 70q0 31 23 53t55 22t55 -22.5t23 -54.5t-23 -55t-55 -23t-55 23t-23 57zM528 70q0 31 22.5 53t53.5 22q34 0 57 -22.5t23 -54.5t-23 -55t-55 -23t-55 23t-23 57zM930 70q0 31 23 53t55 22t54.5 -22.5t22.5 -54.5t-22.5 -55t-54.5 -23t-55 23t-23 57z" />
<glyph unicode="&#x202f;" horiz-adv-x="364" />
<glyph unicode="&#x2039;" horiz-adv-x="419" d="M80 496q0 2 4 18l149 371q11 28 33 28q14 0 23.5 -9.5t9.5 -22.5q0 -7 -4 -23l-143 -360l143 -369q4 -16 4 -23q0 -12 -10.5 -21t-22.5 -9q-21 0 -33 26l-149 373q-4 20 -4 21z" />
<glyph unicode="&#x203a;" horiz-adv-x="419" d="M121 109q0 6 4 22l143 361l-141 368q-6 12 -6 23q0 12 10.5 21t22.5 9q24 0 32 -28l150 -373q4 -12 4 -18q0 -7 -4 -19l-150 -371q-8 -28 -32 -28q-12 0 -22.5 10t-10.5 23z" />
<glyph unicode="&#x205f;" horiz-adv-x="455" />
<glyph unicode="&#x20ac;" horiz-adv-x="1386" d="M88 625q0 30 35 30h92v31v10v19h-92q-35 0 -35 30q0 31 35 31h96q15 183 74 307q72 143 202.5 224.5t288.5 81.5q204 0 336 -123q33 -31 52.5 -63t39.5 -87v203q0 47 39 47t39 -47v-397q0 -50 -37 -50q-36 0 -39 58q-7 167 -125 277t-290 110q-148 0 -264 -80t-173 -221 q-34 -78 -53 -240h725q35 0 35 -31q0 -30 -35 -30h-729v-29v-31h680q35 0 35 -30q0 -13 -10 -22t-25 -9h-676q22 -256 151.5 -400.5t338.5 -144.5q168 0 282 100t129 261q5 33 15 47t30 14q19 0 30 -12.5t11 -32.5q0 -44 -18.5 -105t-48.5 -116q-57 -106 -172.5 -167 t-259.5 -61q-249 0 -399.5 161.5t-178.5 455.5h-96q-35 0 -35 31z" />
<glyph unicode="&#x2122;" horiz-adv-x="1783" d="M59 1161v172q0 22 8.5 30.5t30.5 8.5h559q22 0 30.5 -8.5t8.5 -30.5v-172q0 -37 -28 -37q-31 0 -31 37v125q0 35 -33 35h-162q-32 0 -32 -35v-612q0 -35 32 -35h76q13 0 21 -7t8 -18q0 -26 -29 -26h-280q-29 0 -29 26q0 11 8 18t21 7h75q33 0 33 35v612q0 35 -33 35h-161 q-33 0 -33 -35v-125q0 -37 -29 -37q-31 0 -31 37zM752 614q0 25 28 25h60q32 0 32 35v612q0 35 -32 35h-60q-28 0 -28 27q0 24 28 24h193l266 -710l268 710h191q28 0 28 -24q0 -27 -28 -27h-58q-32 0 -32 -35v-612q0 -35 32 -35h58q28 0 28 -25q0 -26 -28 -26h-236 q-28 0 -28 26q0 25 28 25h49q33 0 33 35v639l-274 -709q-7 -20 -33 -20q-25 0 -31 16l-274 703v-629q0 -35 33 -35h45q28 0 28 -25q0 -26 -28 -26h-230q-28 0 -28 26z" />
<glyph unicode="&#x25fc;" horiz-adv-x="952" d="M0 0v952h952v-952h-952z" />
</font>
</defs>
</svg>
